700 0 1 0           
30 Autodesk Translation Framework 20 ASM 230.5.0.65535 NT 24 Fri Feb 21 22:50:54 2025 
1 9.999999999999999547e-07 1.000000000000000036e-10 
body $1 -1 $-1 $2 $-1 $3 #
rgb_color-st-attrib $-1 -1 $4 $-1 $0 0.9960784313725490335 0.9960784313725490335 1 #
lump $-1 -1 $-1 $-1 $5 $0 #
transform $-1 -1 1 0 0 0 1 0 0 0 1 0 0 0 1 no_rotate no_reflect no_shear #
DXID-attrib $-1 -1 $-1 $1 $0 @10 ASM ENTITY @99 BASEMOLDL.IPT|:|37F758FBBEDE245C6C7A02A1E41B9FF6AED264B2|:|D2F75E8204FEDF2EACD261E2461B2964E3BFD5BE #
shell $-1 -1 $-1 $-1 $-1 $6 $-1 $2 #
face $7 -1 $-1 $8 $9 $5 $-1 $10 reversed single #
DXID-attrib $-1 -1 $-1 $-1 $6 @10 ASM ENTITY @36 90a65c1a-a6e6-4b35-9ba6-41b7f3889ae3 #
face $11 -1 $-1 $12 $13 $5 $-1 $14 reversed single #
loop $-1 -1 $-1 $-1 $15 $6 #
cone-surface $-1 -1 $-1 500 336.0000000000001137 -60.99999999999997158 1 -1.051814540294682338e-32 1.776356839400250502e-17 0 0 0.9999999999999964473 1 I I 0 1 0.9999999999999964473 reversed I I F 0 F 1.570796326794896558 #
DXID-attrib $-1 -1 $-1 $-1 $8 @10 ASM ENTITY @36 6c2d4ae2-d523-40df-a9ff-cf0f6ab2d54b #
face $16 -1 $-1 $17 $18 $5 $-1 $19 reversed single #
loop $-1 -1 $-1 $-1 $20 $8 #
plane-surface $-1 -1 $-1 250 335.0000000000000568 -69.99999999999997158 0 -1 -5.92118946466750122e-16 0 5.921189464667501023e-15 -10 forward_v I I I I #
coedge $-1 -1 $-1 $21 $22 $23 $24 reversed $9 $-1 #
DXID-attrib $-1 -1 $-1 $-1 $12 @10 ASM ENTITY @36 1e011566-d9d8-422b-9ea3-88c37c5f662e #
face $25 -1 $-1 $26 $27 $5 $-1 $28 reversed single #
loop $-1 -1 $-1 $-1 $29 $12 #
cone-surface $-1 -1 $-1 500 349.0000000000000568 -58.99999999999997158 -1 1.147434043957835763e-32 -1.776356839400250502e-17 0 1.000000000000014211 0 1 I I -0 -1 1.000000000000014211 forward I I F 0 F 1.570796326794896558 #
coedge $-1 -1 $-1 $30 $31 $22 $32 forward $13 $-1 #
coedge $-1 -1 $-1 $33 $15 $34 $35 reversed $9 $-1 #
coedge $-1 -1 $-1 $15 $33 $20 $32 reversed $9 $-1 #
coedge $-1 -1 $-1 $36 $37 $15 $24 forward $38 $-1 #
edge $-1 -1 $-1 $39 0 $40 1.570796326794896558 $23 $41 forward @7 unknown #
DXID-attrib $-1 -1 $-1 $-1 $17 @10 ASM ENTITY @36 27806037-0dc6-4631-b97f-6f554407172b #
face $42 -1 $-1 $43 $44 $5 $-1 $45 reversed single #
loop $-1 -1 $-1 $-1 $46 $17 #
plane-surface $-1 -1 $-1 500 350.0000000000000568 -79.99999999999997158 -0 -1 -6.459479416000912932e-16 0 -6.459479416000912932e-15 10 forward_v I I I I #
coedge $-1 -1 $-1 $47 $48 $49 $50 reversed $18 $-1 #
coedge $-1 -1 $-1 $51 $20 $52 $53 reversed $13 $-1 #
coedge $-1 -1 $-1 $20 $51 $36 $54 reversed $13 $-1 #
edge $-1 -1 $-1 $40 -500 $55 7.473591809732356052e-46 $20 $56 forward @7 tangent #
coedge $-1 -1 $-1 $22 $21 $57 $58 reversed $9 $-1 #
coedge $-1 -1 $-1 $59 $60 $21 $35 forward $44 $-1 #
edge $-1 -1 $-1 $61 0 $39 500 $34 $62 forward @7 tangent #
coedge $-1 -1 $-1 $63 $23 $31 $54 forward $38 $-1 #
coedge $-1 -1 $-1 $23 $49 $59 $64 forward $38 $-1 #
loop $-1 -1 $-1 $-1 $36 $65 #
vertex $-1 -1 $-1 $24 $66 #
vertex $-1 -1 $-1 $24 $67 #
ellipse-curve $-1 -1 $-1 0 336.0000000000001137 -60.99999999999997868 1 0 0 0 0 0.9999999999999964473 1 I I #
DXID-attrib $-1 -1 $-1 $-1 $26 @10 ASM ENTITY @36 a5fd3d13-5fc7-464f-9f97-1073b68f432b #
face $68 -1 $-1 $69 $70 $5 $-1 $71 reversed single #
loop $-1 -1 $-1 $-1 $34 $26 #
plane-surface $-1 -1 $-1 500 350.0000000000000568 -59.99999999999996447 -1.776356839400250502e-17 -5.92118946466750122e-16 1 -10 1.147434043957835735e-31 -1.776356839400250563e-16 forward_v I I I I #
coedge $-1 -1 $-1 $72 $73 $47 $74 forward $27 $-1 #
coedge $-1 -1 $-1 $75 $29 $46 $74 reversed $18 $-1 #
coedge $-1 -1 $-1 $29 $75 $76 $77 reversed $18 $-1 #
coedge $-1 -1 $-1 $37 $78 $29 $50 forward $38 $-1 #
edge $-1 -1 $-1 $79 8.881784197001126106e-15 $80 1.570796326794896558 $49 $81 forward @7 unknown #
coedge $-1 -1 $-1 $31 $30 $82 $83 reversed $13 $-1 #
coedge $-1 -1 $-1 $57 $84 $30 $53 forward $85 $-1 #
edge $-1 -1 $-1 $86 -0.4999999999999991118 $55 1.400000000000001243 $52 $87 forward @7 unknown #
edge $-1 -1 $-1 $40 8.599999999999997868 $88 10.49999999999999822 $36 $89 forward @7 unknown #
vertex $-1 -1 $-1 $58 $90 #
straight-curve $-1 -1 $-1 500 335.0000000000000568 -60.99999999999997158 1 -1.051814540294682338e-32 1.776356839400250502e-17 F -500 F 7.473591809732356052e-46 #
coedge $-1 -1 $-1 $91 $52 $33 $58 forward $85 $-1 #
edge $-1 -1 $-1 $55 -1.570796326794896558 $61 0 $57 $92 forward @7 unknown #
coedge $-1 -1 $-1 $76 $34 $37 $64 reversed $44 $-1 #
coedge $-1 -1 $-1 $34 $76 $91 $93 reversed $44 $-1 #
vertex $-1 -1 $-1 $35 $94 #
straight-curve $-1 -1 $-1 500 336.0000000000001137 -59.99999999999997158 -1 1.051814540294682338e-32 -1.776356839400250502e-17 F 0 F 500 #
coedge $-1 -1 $-1 $95 $36 $96 $97 forward $38 $-1 #
edge $-1 -1 $-1 $80 2.600000000000001421 $39 3.899999999999998579 $37 $98 forward @7 unknown #
face $99 -1 $-1 $100 $38 $5 $-1 $101 forward single #
point $-1 -1 $-1 -3.552713678800501127e-16 336.0000000000001137 -59.99999999999998579 #
point $-1 -1 $-1 -3.375077994860476415e-16 335 -60.99999999999997868 #
DXID-attrib $-1 -1 $-1 $-1 $43 @10 ASM ENTITY @36 32bf70d5-c188-48f6-9e1e-b1e31e4b7370 #
face $102 -1 $-1 $103 $104 $5 $-1 $105 reversed single #
loop $-1 -1 $-1 $-1 $106 $43 #
cone-surface $-1 -1 $-1 500 337.5 17.49999999999999289 1 0 0 0 12.5 8.881784197001252323e-15 1 I I -0 -1 12.5 forward I I F 0 F 1.570796326794895892 #
coedge $-1 -1 $-1 $107 $46 $78 $108 reversed $27 $-1 #
coedge $-1 -1 $-1 $46 $107 $109 $110 reversed $27 $-1 #
edge $-1 -1 $-1 $111 0 $79 500 $46 $112 forward @7 tangent #
coedge $-1 -1 $-1 $48 $47 $113 $114 reversed $18 $-1 #
coedge $-1 -1 $-1 $60 $59 $48 $77 forward $44 $-1 #
edge $-1 -1 $-1 $80 -500 $115 0 $76 $116 forward @7 tangent #
coedge $-1 -1 $-1 $49 $117 $72 $108 forward $38 $-1 #
vertex $-1 -1 $-1 $50 $118 #
vertex $-1 -1 $-1 $50 $119 #
ellipse-curve $-1 -1 $-1 0 349.0000000000000568 -58.99999999999997868 -1 0 0 0 1.000000000000014211 0 1 I I #
coedge $-1 -1 $-1 $120 $96 $51 $83 forward $121 $-1 #
edge $-1 -1 $-1 $88 -12.5 $86 37.5 $82 $122 forward @7 unknown #
coedge $-1 -1 $-1 $52 $123 $120 $124 reversed $85 $-1 #
loop $-1 -1 $-1 $-1 $52 $125 #
vertex $-1 -1 $-1 $53 $126 #
straight-curve $-1 -1 $-1 500 335.0000000000001137 -74.99999999999998579 0 -5.921189464667501023e-15 10 I I #
vertex $-1 -1 $-1 $83 $127 #
straight-curve $-1 -1 $-1 0 335 24.99999999999999645 0 5.921189464667501023e-15 -10 I I #
point $-1 -1 $-1 500 335 -60.99999999999997158 #
coedge $-1 -1 $-1 $113 $57 $60 $93 forward $85 $-1 #
ellipse-curve $-1 -1 $-1 500 336.0000000000001137 -60.99999999999997158 -1 -0 -0 0 0 0.9999999999999964473 1 I I #
edge $-1 -1 $-1 $61 -3.900000000000005684 $115 -2.600000000000008527 $91 $128 forward @7 unknown #
point $-1 -1 $-1 500 336.0000000000001137 -59.99999999999997158 #
coedge $-1 -1 $-1 $129 $63 $130 $131 reversed $38 $-1 #
coedge $-1 -1 $-1 $82 $132 $63 $97 reversed $121 $-1 #
edge $133 -1 $-1 $88 6.500000000000007105 $134 45 $96 $135 forward @7 unknown #
straight-curve $-1 -1 $-1 0 375.0000000000000568 -59.99999999999994316 0 -10 -5.921189464667501023e-15 I I #
DXID-attrib $-1 -1 $-1 $-1 $65 @10 ASM ENTITY @36 631d5d72-1c0b-4e10-a951-395eb9a71f4d #
face $136 -1 $-1 $137 $121 $5 $-1 $138 forward single #
plane-surface $-1 -1 $-1 0 400 120 -1 0 0 0 7.894919286223335749e-15 -10 forward_v I I I I #
DXID-attrib $-1 -1 $-1 $-1 $69 @10 ASM ENTITY @36 7ed41773-54ad-4255-a1a8-b329915f4bce #
face $139 -1 $-1 $140 $141 $5 $-1 $142 forward single #
loop $-1 -1 $-1 $-1 $143 $69 #
plane-surface $-1 -1 $-1 0 0 29.99999999999990052 0 2.4424906541753436e-16 -1 0 10 2.4424906541753436e-15 forward_v I I I I #
coedge $-1 -1 $-1 $144 $145 $146 $147 reversed $70 $-1 #
coedge $-1 -1 $-1 $73 $72 $144 $148 forward $27 $-1 #
edge $-1 -1 $-1 $149 0.25 $79 7.899999999999998579 $78 $150 forward @7 unknown #
coedge $-1 -1 $-1 $146 $113 $73 $110 forward $85 $-1 #
edge $-1 -1 $-1 $111 2.100000000000001421 $151 9.749999999999998224 $109 $152 forward @7 unknown #
vertex $-1 -1 $-1 $74 $153 #
straight-curve $-1 -1 $-1 500 350.0000000000000568 -58.99999999999997158 -1 1.147434043957835763e-32 -1.776356839400250502e-17 F 0 F 500 #
coedge $-1 -1 $-1 $109 $91 $75 $114 forward $85 $-1 #
edge $-1 -1 $-1 $115 -1.570796326794896558 $111 0 $113 $154 forward @7 unknown #
vertex $-1 -1 $-1 $114 $155 #
straight-curve $-1 -1 $-1 500 349.0000000000000568 -59.99999999999996447 1 -1.147434043957835763e-32 1.776356839400250502e-17 F -500 F 0 #
coedge $-1 -1 $-1 $78 $156 $157 $158 forward $38 $-1 #
point $-1 -1 $-1 0 350.0000000000000568 -58.99999999999998579 #
point $-1 -1 $-1 -3.552713678800501127e-16 349.0000000000000568 -59.99999999999997158 #
coedge $-1 -1 $-1 $132 $82 $84 $124 forward $121 $-1 #
loop $-1 -1 $-1 $-1 $82 $100 #
straight-curve $-1 -1 $-1 125 335.0000000000001137 -80.00000000000001421 10 0 0 I I #
coedge $-1 -1 $-1 $84 $159 $160 $161 reversed $85 $-1 #
edge $162 -1 $-1 $86 6.500000000000007105 $163 45 $120 $164 forward @7 unknown #
face $165 -1 $-1 $166 $85 $5 $-1 $167 forward single #
point $-1 -1 $-1 500 335.0000000000000568 -79.99999999999997158 #
point $-1 -1 $-1 0 335.0000000000000568 -79.99999999999998579 #
straight-curve $-1 -1 $-1 500 375.0000000000001137 -59.99999999999994316 0 10 5.921189464667501023e-15 I I #
coedge $-1 -1 $-1 $168 $95 $169 $170 reversed $38 $-1 #
coedge $-1 -1 $-1 $171 $172 $95 $131 forward $173 $-1 #
edge $174 -1 $-1 $175 -19.99999999999999645 $134 -0 $95 $176 forward @7 unknown #
coedge $-1 -1 $-1 $96 $120 $171 $177 reversed $121 $-1 #
DXID-attrib $-1 -1 $-1 $-1 $97 @10 ASM ENTITY @36 ee29cafd-0505-43ae-a218-42f9d0c410cd #
vertex $-1 -1 $-1 $97 $178 #
straight-curve $-1 -1 $-1 0 400.0000000000001137 -79.99999999999997158 0 -10 -7.894919286223335749e-15 I I #
DXID-attrib $-1 -1 $-1 $-1 $100 @10 ASM ENTITY @36 5d9a220f-df64-4c20-ac13-1d73edabc006 #
face $179 -1 $-1 $-1 $173 $5 $-1 $180 forward single #
plane-surface $-1 -1 $-1 0 400.0000000000001137 -79.99999999999997158 0 7.89491928622333496e-16 -1 10 0 0 forward_v I I I I #
DXID-attrib $-1 -1 $-1 $-1 $103 @10 ASM ENTITY @36 3358f444-c07b-455c-bc9a-54a129abf437 #
face $181 -1 $-1 $125 $182 $5 $-1 $183 reversed single #
loop $-1 -1 $-1 $-1 $184 $103 #
cone-surface $-1 -1 $-1 500 12.5 42.49999999999989342 -1 0 0 0 12.5 0 1 I I 0 -1 12.5 forward I I I I #
coedge $-1 -1 $-1 $185 $186 $145 $187 forward $104 $-1 #
coedge $-1 -1 $-1 $157 $106 $107 $148 reversed $70 $-1 #
coedge $-1 -1 $-1 $106 $157 $143 $187 reversed $70 $-1 #
coedge $-1 -1 $-1 $188 $109 $106 $147 forward $85 $-1 #
edge $-1 -1 $-1 $151 0 $189 1.570796326794895892 $146 $190 forward @7 unknown #
edge $-1 -1 $-1 $149 -40 $151 0 $107 $191 forward @7 tangent #
vertex $-1 -1 $-1 $108 $192 #
straight-curve $-1 -1 $-1 0 350 20 0 6.459479416000912932e-15 -10 I I #
vertex $-1 -1 $-1 $148 $193 #
straight-curve $-1 -1 $-1 500 350.0000000000001137 -79.99999999999998579 0 -6.459479416000912932e-15 10 I I #
point $-1 -1 $-1 500 350.0000000000000568 -58.99999999999997158 #
ellipse-curve $-1 -1 $-1 500 349.0000000000000568 -58.99999999999997158 1 0 0 0 1.000000000000014211 0 1 I I #
point $-1 -1 $-1 500 349.0000000000000568 -59.99999999999996447 #
coedge $-1 -1 $-1 $117 $194 $185 $195 forward $38 $-1 #
coedge $-1 -1 $-1 $145 $144 $117 $158 reversed $70 $-1 #
edge $-1 -1 $-1 $196 -1.570796326794895892 $149 0 $117 $197 forward @7 unknown #
coedge $-1 -1 $-1 $123 $198 $199 $200 forward $85 $-1 #
coedge $-1 -1 $-1 $172 $171 $123 $161 forward $173 $-1 #
edge $201 -1 $-1 $163 -19.99999999999999645 $202 -0 $123 $203 forward @7 unknown #
DXID-attrib $-1 -1 $-1 $-1 $124 @10 ASM ENTITY @36 e38e2e5f-4598-4b0f-a3fd-3f5fcd4838a2 #
vertex $-1 -1 $-1 $161 $204 #
straight-curve $-1 -1 $-1 500 400.0000000000001137 -79.99999999999997158 0 -10 -7.894919286223335749e-15 I I #
DXID-attrib $-1 -1 $-1 $-1 $125 @10 ASM ENTITY @36 291e1ee9-4781-486f-95dd-448f8329cade #
face $205 -1 $-1 $65 $206 $5 $-1 $207 forward single #
plane-surface $-1 -1 $-1 500 400.0000000000001137 -79.99999999999997158 1 0 0 0 -7.894919286223335749e-15 10 forward_v I I I I #
coedge $-1 -1 $-1 $194 $129 $208 $209 forward $38 $-1 #
coedge $-1 -1 $-1 $210 $211 $129 $170 forward $206 $-1 #
edge $212 -1 $-1 $213 39.99999999999999289 $175 45 $169 $214 forward @7 unknown #
coedge $-1 -1 $-1 $160 $130 $132 $177 forward $173 $-1 #
coedge $-1 -1 $-1 $130 $160 $210 $215 forward $173 $-1 #
loop $-1 -1 $-1 $-1 $171 $137 #
DXID-attrib $-1 -1 $-1 $-1 $131 @10 ASM ENTITY @36 aba68fbf-8233-442b-a9dd-71dcd54e5c04 #
vertex $-1 -1 $-1 $170 $216 #
straight-curve $-1 -1 $-1 0 -49.99999999999985789 -80.00000000000031264 0 7.894919286223335749e-15 -10 I I #
edge $217 -1 $-1 $134 -50 $163 -0 $132 $218 forward @7 unknown #
point $-1 -1 $-1 0 -49.99999999999985789 -80.00000000000031264 #
DXID-attrib $-1 -1 $-1 $-1 $137 @10 ASM ENTITY @36 bb46a4bc-fb51-465f-afee-66387f3bcc0c #
plane-surface $-1 -1 $-1 250 -49.99999999999992895 19.99999999999966249 0 -1 -7.89491928622333496e-16 0 7.894919286223335749e-15 -10 forward_v I I I I #
DXID-attrib $-1 -1 $-1 $-1 $140 @10 ASM ENTITY @36 31d32443-fcc5-4bca-a99b-bab424138380 #
loop $-1 -1 $-1 $-1 $219 $140 #
plane-surface $-1 -1 $-1 0 5.329070518200751394e-14 120 0 -1 5.921189464667494318e-16 0 -5.921189464667494712e-15 -10 forward_v I I I I #
coedge $-1 -1 $-1 $220 $221 $222 $223 reversed $141 $-1 #
coedge $-1 -1 $-1 $224 $143 $156 $195 reversed $104 $-1 #
coedge $-1 -1 $-1 $143 $224 $188 $225 reversed $104 $-1 #
edge $-1 -1 $-1 $189 0 $196 40 $143 $226 forward @7 tangent #
coedge $-1 -1 $-1 $222 $146 $186 $225 forward $85 $-1 #
vertex $-1 -1 $-1 $147 $227 #
ellipse-curve $-1 -1 $-1 500 337.5 17.49999999999999289 1 0 0 0 12.5 8.881784197001252323e-15 1 I I #
straight-curve $-1 -1 $-1 500 350 17.5 12.5 0 0 F -40 F 0 #
point $-1 -1 $-1 0 350 17.5 #
point $-1 -1 $-1 500 350 17.5 #
coedge $-1 -1 $-1 $156 $168 $228 $229 forward $38 $-1 #
edge $-1 -1 $-1 $230 -18.75 $196 13.75 $156 $231 forward @7 unknown #
vertex $-1 -1 $-1 $158 $232 #
ellipse-curve $-1 -1 $-1 0 337.5 17.49999999999999289 -1 0 0 0 12.5 8.881784197001252323e-15 1 I I #
coedge $-1 -1 $-1 $159 $222 $233 $234 forward $85 $-1 #
coedge $-1 -1 $-1 $211 $210 $159 $200 reversed $206 $-1 #
edge $235 -1 $-1 $236 39.99999999999999289 $202 45 $159 $237 forward @7 unknown #
DXID-attrib $-1 -1 $-1 $-1 $161 @10 ASM ENTITY @36 1c217a3e-a6eb-4e4c-8b11-8961c2654314 #
vertex $-1 -1 $-1 $200 $238 #
straight-curve $-1 -1 $-1 500 -50 119.9999999999996447 0 -7.894919286223335749e-15 10 I I #
point $-1 -1 $-1 500 -49.99999999999985789 -80.00000000000031264 #
DXID-attrib $-1 -1 $-1 $-1 $166 @10 ASM ENTITY @36 f13f8730-2aa0-497a-9a04-533a3eafe06f #
loop $-1 -1 $-1 $-1 $211 $166 #
plane-surface $-1 -1 $-1 500 400 120 0 -7.89491928622333496e-16 1 -10 -0 -0 forward_v I I I I #
coedge $-1 -1 $-1 $239 $219 $168 $209 reversed $182 $-1 #
edge $-1 -1 $-1 $213 1.243449787580175483e-14 $240 7.750000000000023093 $168 $241 forward @7 unknown #
coedge $-1 -1 $-1 $199 $169 $172 $215 reversed $206 $-1 #
coedge $-1 -1 $-1 $169 $199 $239 $242 forward $206 $-1 #
DXID-attrib $-1 -1 $-1 $-1 $170 @10 ASM ENTITY @36 5fcae599-f016-4d8a-9f2c-a3bb472edd34 #
vertex $-1 -1 $-1 $209 $243 #
straight-curve $-1 -1 $-1 0 400 120 0 -10 -7.894919286223335749e-15 I I #
edge $244 -1 $-1 $202 -50 $175 -0 $210 $245 forward @7 unknown #
point $-1 -1 $-1 0 -50 119.9999999999996447 #
DXID-attrib $-1 -1 $-1 $-1 $177 @10 ASM ENTITY @36 8ab72529-85f2-4715-b123-2ca443fc1ad7 #
straight-curve $-1 -1 $-1 500 -49.99999999999985789 -80.00000000000031264 10 0 0 I I #
coedge $-1 -1 $-1 $208 $233 $221 $246 reversed $182 $-1 #
coedge $-1 -1 $-1 $228 $184 $224 $247 reversed $141 $-1 #
coedge $-1 -1 $-1 $184 $228 $219 $246 forward $141 $-1 #
coedge $-1 -1 $-1 $198 $188 $184 $223 forward $85 $-1 #
edge $-1 -1 $-1 $248 1.570796326794896558 $249 3.141592653589793116 $222 $250 forward @7 unknown #
coedge $-1 -1 $-1 $186 $185 $220 $247 forward $104 $-1 #
edge $-1 -1 $-1 $189 -13.74999999999999289 $248 18.75000000000000711 $188 $251 forward @7 unknown #
straight-curve $-1 -1 $-1 500 337.5 29.99999999999998224 -12.5 0 0 F 0 F 40 #
point $-1 -1 $-1 500 337.5 29.99999999999998579 #
coedge $-1 -1 $-1 $221 $220 $194 $229 reversed $141 $-1 #
edge $-1 -1 $-1 $240 -3.141592653589793116 $230 -1.570796326794896558 $194 $252 forward @7 unknown #
vertex $-1 -1 $-1 $195 $253 #
straight-curve $-1 -1 $-1 0 200 29.99999999999993605 0 10 2.4424906541753436e-15 I I #
point $-1 -1 $-1 0 337.5 29.99999999999998579 #
coedge $-1 -1 $-1 $219 $239 $198 $234 reversed $182 $-1 #
edge $-1 -1 $-1 $249 2.249999999999975575 $236 9.999999999999985789 $198 $254 forward @7 unknown #
DXID-attrib $-1 -1 $-1 $-1 $200 @10 ASM ENTITY @36 ea7db63b-b518-4ff8-a648-9761aec58738 #
vertex $-1 -1 $-1 $242 $255 #
straight-curve $-1 -1 $-1 500 400 120 0 -10 -7.894919286223335749e-15 I I #
point $-1 -1 $-1 500 -50 119.9999999999996447 #
coedge $-1 -1 $-1 $233 $208 $211 $242 reversed $182 $-1 #
vertex $-1 -1 $-1 $229 $256 #
straight-curve $-1 -1 $-1 0 7.105427357601001859e-14 120.0000000000001279 0 -5.921189464667494712e-15 -10 I I #
edge $-1 -1 $-1 $236 -25 $213 25 $211 $257 forward @7 unknown #
point $-1 -1 $-1 0 5.329070518200751394e-14 120 #
DXID-attrib $-1 -1 $-1 $-1 $215 @10 ASM ENTITY @36 911c8ad6-3d17-4ed8-b303-fabf7ba0cbc4 #
straight-curve $-1 -1 $-1 0 -50 119.9999999999996447 -10 -0 -0 I I #
edge $-1 -1 $-1 $240 -50 $249 0 $219 $258 forward @7 tangent #
edge $-1 -1 $-1 $230 -50 $248 0 $224 $259 forward @7 tangent #
vertex $-1 -1 $-1 $247 $260 #
vertex $-1 -1 $-1 $223 $261 #
ellipse-curve $-1 -1 $-1 500 12.5 42.49999999999989342 -1 -0 -0 0 12.5 0 1 I I #
straight-curve $-1 -1 $-1 500 200.0000000000000568 29.99999999999995026 0 -10 -2.4424906541753436e-15 I I #
ellipse-curve $-1 -1 $-1 0 12.5 42.49999999999989342 1 0 0 0 12.5 0 1 I I #
point $-1 -1 $-1 0 12.5 29.99999999999989342 #
straight-curve $-1 -1 $-1 500 0 20.00000000000013856 0 5.921189464667494712e-15 10 I I #
point $-1 -1 $-1 500 7.105427357601001859e-14 120 #
point $-1 -1 $-1 0 0 42.49999999999989342 #
straight-curve $-1 -1 $-1 250 7.105427357600975353e-14 119.9999999999996874 -10 0 0 I I #
straight-curve $-1 -1 $-1 500 8.881784197001252323e-15 42.49999999999990052 10 0 0 I I #
straight-curve $-1 -1 $-1 500 12.50000000000000355 29.99999999999990052 10 0 0 I I #
point $-1 -1 $-1 500 12.5 29.99999999999989342 #
point $-1 -1 $-1 500 0 42.49999999999989342 #
End-of-ACIS-data 