700 0 1 0           
30 Autodesk Translation Framework 20 ASM 230.5.0.65535 NT 24 Thu Jan 30 12:00:52 2025 
1 9.999999999999999547e-07 1.000000000000000036e-10 
body $1 -1 $-1 $2 $-1 $3 #
rgb_color-st-attrib $-1 -1 $4 $-1 $0 0.9960784313725490335 0.9960784313725490335 1 #
lump $-1 -1 $-1 $-1 $5 $0 #
transform $-1 -1 1 0 0 0 1 0 0 0 1 0 0 0 1 no_rotate no_reflect no_shear #
DXID-attrib $-1 -1 $-1 $1 $0 @10 ASM ENTITY @96 MOLDER.IPT|:|37F758FBBEDE245C6C7A02A1E41B9FF6AED264B2|:|DA4B9237BACCCDF19C0760CAB7AEC4A8359010B0 #
shell $-1 -1 $-1 $-1 $-1 $6 $-1 $2 #
face $7 -1 $-1 $8 $9 $5 $-1 $10 forward single #
DXID-attrib $-1 -1 $-1 $-1 $6 @10 ASM ENTITY @36 71c56826-8f66-4fbc-b563-35704984a927 #
face $11 -1 $-1 $12 $13 $5 $-1 $14 forward single #
loop $-1 -1 $-1 $-1 $15 $6 #
cone-surface $-1 -1 $-1 406 37.50000000000006395 71.00000000000001421 -0 -1 -3.552713678800501127e-16 -0.707106781186578992 0 -0.7071067811865161534 1 I I 0 -1 1 forward I I I I #
DXID-attrib $-1 -1 $-1 $-1 $8 @10 ASM ENTITY @36 212ef41e-f7c1-4f01-bb9f-11240e049440 #
face $16 -1 $-1 $17 $18 $5 $-1 $19 forward single #
loop $-1 -1 $-1 $-1 $20 $8 #
cone-surface $-1 -1 $-1 406 49.00000000000006395 107.5 -0 -0 -1 -0.707106781186578992 0.7071067811865161534 0 1 I I 0 -1 1 forward I I I I #
coedge $-1 -1 $-1 $21 $22 $23 $24 forward $9 $-1 #
DXID-attrib $-1 -1 $-1 $-1 $12 @10 ASM ENTITY @36 7f35604e-205c-4e78-a9fe-c856bb3e8220 #
face $25 -1 $-1 $26 $27 $5 $-1 $28 reversed single #
loop $-1 -1 $-1 $-1 $29 $12 #
sphere-surface $-1 -1 $-1 406 49.00000000000006395 71.00000000000001421 -1 -0.5773502691896327255 0.5773502691896224004 -0.5773502691896224004 0.408248290463864294 -0.4082482904638569665 -0.816496580927728477 forward_v I I I I #
coedge $-1 -1 $-1 $30 $31 $29 $32 forward $13 $-1 #
coedge $-1 -1 $-1 $33 $15 $34 $35 forward $9 $-1 #
coedge $-1 -1 $-1 $15 $33 $36 $37 forward $9 $-1 #
coedge $-1 -1 $-1 $38 $29 $15 $24 reversed $18 $-1 #
edge $-1 -1 $-1 $39 0 $40 1.570796326794896558 $15 $41 forward @7 tangent #
DXID-attrib $-1 -1 $-1 $-1 $17 @10 ASM ENTITY @36 bd16dac0-1e6c-422e-8743-deafdb848da1 #
face $42 -1 $-1 $43 $44 $5 $-1 $45 forward single #
loop $-1 -1 $-1 $-1 $34 $17 #
plane-surface $-1 -1 $-1 405 25.00000000000005329 95 -1 0 0 0 0 10 forward_v I I I I #
coedge $-1 -1 $-1 $23 $38 $20 $32 reversed $18 $-1 #
coedge $-1 -1 $-1 $46 $20 $47 $48 forward $13 $-1 #
coedge $-1 -1 $-1 $20 $46 $49 $50 forward $13 $-1 #
edge $-1 -1 $-1 $40 0 $51 1.570796326794896558 $20 $52 forward @7 tangent #
coedge $-1 -1 $-1 $22 $21 $53 $54 forward $9 $-1 #
coedge $-1 -1 $-1 $49 $55 $21 $35 reversed $27 $-1 #
edge $-1 -1 $-1 $40 -1.150000000000000355 $56 3.750000000000003553 $34 $57 forward @7 tangent #
coedge $-1 -1 $-1 $58 $59 $22 $37 reversed $60 $-1 #
edge $-1 -1 $-1 $61 -3.750000000000003997 $39 1.150000000000000355 $36 $62 forward @7 tangent #
coedge $-1 -1 $-1 $29 $23 $63 $64 forward $18 $-1 #
vertex $-1 -1 $-1 $24 $65 #
vertex $-1 -1 $-1 $24 $66 #
ellipse-curve $-1 -1 $-1 406 49.00000000000006395 71.00000000000001421 0 1 0 0 0 -0.9999999999999964473 1 F 0 F 1.570796326794896558 #
DXID-attrib $-1 -1 $-1 $-1 $26 @10 ASM ENTITY @36 8166e1d9-4e66-43a7-ba7a-193831aa83be #
face $67 -1 $-1 $68 $69 $5 $-1 $70 reversed single #
loop $-1 -1 $-1 $-1 $63 $26 #
cone-surface $-1 -1 $-1 500 49.00000000000006395 71.00000000000001421 -1 -0 -0 0 0.7071067811865476838 -0.7071067811865476838 1 I I 0 -1 1.000000000000000222 forward I I I I #
coedge $-1 -1 $-1 $31 $30 $71 $72 forward $13 $-1 #
coedge $-1 -1 $-1 $73 $74 $30 $48 reversed $69 $-1 #
edge $-1 -1 $-1 $51 -3.649999999999998579 $75 1.25 $47 $76 forward @7 tangent #
coedge $-1 -1 $-1 $77 $34 $31 $50 reversed $27 $-1 #
edge $-1 -1 $-1 $78 -1.25 $40 3.649999999999998579 $49 $79 forward @7 tangent #
vertex $-1 -1 $-1 $32 $80 #
ellipse-curve $-1 -1 $-1 406 49.00000000000006395 71.00000000000001421 0 0 -1 -1.000000000000014211 0 0 1 F 0 F 1.570796326794896558 #
coedge $-1 -1 $-1 $81 $82 $33 $54 reversed $83 $-1 #
edge $-1 -1 $-1 $56 -0.7853981633973949883 $61 0.7853981633974927989 $33 $84 forward @7 unknown #
coedge $-1 -1 $-1 $34 $77 $81 $85 reversed $27 $-1 #
vertex $-1 -1 $-1 $35 $86 #
straight-curve $-1 -1 $-1 405 37.50000000000006395 71.00000000000001421 -0 -10 -3.552713678800500929e-15 F -1.360001000000001348 F 4.060001000000002414 #
coedge $-1 -1 $-1 $87 $36 $82 $88 reversed $60 $-1 #
coedge $-1 -1 $-1 $36 $87 $89 $90 reversed $60 $-1 #
loop $-1 -1 $-1 $-1 $36 $91 #
vertex $-1 -1 $-1 $54 $92 #
straight-curve $-1 -1 $-1 406 37.50000000000006395 70.00000000000001421 0 10 3.552713678800500929e-15 F -4.060001000000002414 F 1.360001000000001348 #
coedge $-1 -1 $-1 $89 $93 $38 $64 reversed $44 $-1 #
edge $-1 -1 $-1 $39 -0.785398163397448279 $51 0.785398163397448279 $63 $94 forward @7 tangent #
point $-1 -1 $-1 406 49.00000000000006395 70.00000000000001421 #
point $-1 -1 $-1 405 49.00000000000006395 71.00000000000001421 #
DXID-attrib $-1 -1 $-1 $-1 $43 @10 ASM ENTITY @36 438c774e-329d-419d-b0b9-24f3e1d08a5a #
face $95 -1 $-1 $96 $97 $5 $-1 $98 forward single #
loop $-1 -1 $-1 $99 $47 $43 #
plane-surface $-1 -1 $-1 500 50.00000000000006395 120 0 1 0 -0 -0 -10 forward_v I I I I #
coedge $-1 -1 $-1 $100 $101 $46 $72 reversed $102 $-1 #
edge $-1 -1 $-1 $75 -0.7853981633974926879 $78 0.7853981633974126408 $46 $103 forward @7 unknown #
coedge $-1 -1 $-1 $104 $47 $93 $105 reversed $69 $-1 #
coedge $-1 -1 $-1 $47 $104 $100 $106 reversed $69 $-1 #
vertex $-1 -1 $-1 $48 $107 #
straight-curve $-1 -1 $-1 406 50.00000000000006395 107.5 0 0 10 F -3.86000100000000046 F 1.560000999999997973 #
coedge $-1 -1 $-1 $55 $49 $101 $108 reversed $27 $-1 #
vertex $-1 -1 $-1 $72 $109 #
straight-curve $-1 -1 $-1 405 49.00000000000006395 107.5 0 0 -10 F -1.560000999999997973 F 3.86000100000000046 #
point $-1 -1 $-1 406 50.00000000000006395 71.00000000000001421 #
coedge $-1 -1 $-1 $110 $53 $55 $85 forward $83 $-1 #
coedge $-1 -1 $-1 $53 $111 $58 $88 forward $83 $-1 #
loop $-1 -1 $-1 $-1 $112 $113 #
ellipse-curve $-1 -1 $-1 406 7.105427357601001859e-14 71 0 -1 5.921189464667494318e-16 -0.707106781186578992 0 -0.7071067811865161534 1 I I #
edge $-1 -1 $-1 $56 -3.650000000000000355 $114 1.25 $81 $115 forward @7 unknown #
point $-1 -1 $-1 405 2.501702548822022034e-14 71 #
coedge $-1 -1 $-1 $59 $58 $116 $117 reversed $60 $-1 #
edge $-1 -1 $-1 $118 -25 $61 -15.60000000000000142 $82 $119 forward @7 unknown #
coedge $-1 -1 $-1 $120 $63 $59 $90 forward $44 $-1 #
edge $-1 -1 $-1 $39 -9.399999999999998579 $121 0 $59 $122 forward @7 tangent #
face $123 -1 $-1 $113 $60 $5 $-1 $124 reversed single #
point $-1 -1 $-1 406 2.220446049250313081e-14 69.99999999999998579 #
coedge $-1 -1 $-1 $63 $120 $73 $105 forward $44 $-1 #
ellipse-curve $-1 -1 $-1 406 49.00000000000006395 71.00000000000001421 1 0 0 0 0.7071067811865461294 -0.7071067811865461294 1 I I #
DXID-attrib $-1 -1 $-1 $-1 $68 @10 ASM ENTITY @36 23967a16-ed14-4ed0-a163-6af383d483dd #
face $125 -1 $-1 $126 $127 $5 $-1 $128 forward single #
loop $-1 -1 $-1 $129 $130 $68 #
cone-surface $-1 -1 $-1 375 114.3750000000000711 29.99999999999992895 0 0 -1 -20 0 0 1 I I 0 1 20 forward I I I I #
loop $-1 -1 $-1 $131 $132 $43 #
coedge $-1 -1 $-1 $133 $71 $74 $106 forward $102 $-1 #
coedge $-1 -1 $-1 $71 $134 $77 $108 forward $102 $-1 #
loop $-1 -1 $-1 $-1 $101 $135 #
ellipse-curve $-1 -1 $-1 406 49.00000000000006395 120 0 0 1 -0.707106781186578992 0.7071067811865161534 0 1 I I #
coedge $-1 -1 $-1 $74 $73 $136 $137 reversed $69 $-1 #
edge $-1 -1 $-1 $138 0 $51 9.399999999999998579 $73 $139 forward @7 tangent #
edge $-1 -1 $-1 $75 15.60000000000000142 $140 25 $100 $141 forward @7 unknown #
point $-1 -1 $-1 406 50.00000000000007105 120 #
edge $-1 -1 $-1 $114 -21.24999999999999645 $78 -16.34999999999999787 $101 $142 forward @7 unknown #
point $-1 -1 $-1 405 49.00000000000005684 120 #
coedge $-1 -1 $-1 $143 $81 $134 $144 reversed $83 $-1 #
coedge $-1 -1 $-1 $82 $112 $145 $146 reversed $83 $-1 #
coedge $-1 -1 $-1 $111 $143 $147 $148 forward $83 $-1 #
face $149 -1 $-1 $135 $83 $5 $-1 $150 forward single #
vertex $-1 -1 $-1 $108 $151 #
straight-curve $-1 -1 $-1 405 4.66293670342565747e-14 107.5 0 5.921189464667494712e-15 10 I I #
coedge $-1 -1 $-1 $145 $152 $87 $117 forward $153 $-1 #
edge $-1 -1 $-1 $121 7.599999999999998757 $118 12.50000000000000178 $116 $154 forward @7 unknown #
vertex $-1 -1 $-1 $117 $155 #
straight-curve $-1 -1 $-1 250 2.220446049250313081e-14 69.99999999999998579 -10 -0 -0 I I #
coedge $-1 -1 $-1 $93 $89 $152 $156 forward $44 $-1 #
vertex $-1 -1 $-1 $90 $157 #
straight-curve $-1 -1 $-1 500 49.00000000000006395 70.00000000000001421 10 0 0 F -9.810000999999999749 F 0.310000999999999749 #
DXID-attrib $-1 -1 $-1 $-1 $91 @10 ASM ENTITY @36 0365f530-8383-44ec-8964-d32f311d55e9 #
plane-surface $-1 -1 $-1 500 50.00000000000006395 70.00000000000001421 0 3.552713678800501127e-16 -1 -0 -10 -3.552713678800500929e-15 forward_v I I I I #
DXID-attrib $-1 -1 $-1 $-1 $96 @10 ASM ENTITY @36 42c69576-7e70-47a8-a566-6f8ec64f035b #
face $158 -1 $-1 $159 $160 $5 $-1 $161 forward single #
loop $-1 -1 $-1 $-1 $162 $96 #
plane-surface $-1 -1 $-1 375 114.3750000000000711 9.999999999999928946 0 2.4424906541753436e-16 -1 -10 0 0 forward_v I I I I #
loop $-1 -1 $-1 $-1 $163 $68 #
coedge $-1 -1 $-1 $130 $130 $162 $164 reversed $97 $-1 #
loop $-1 -1 $-1 $-1 $165 $43 #
coedge $-1 -1 $-1 $132 $132 $166 $167 forward $99 $-1 #
coedge $-1 -1 $-1 $168 $100 $169 $170 reversed $102 $-1 #
coedge $-1 -1 $-1 $101 $171 $110 $144 forward $102 $-1 #
face $172 -1 $-1 $173 $102 $5 $-1 $174 forward single #
coedge $-1 -1 $-1 $152 $169 $104 $137 forward $153 $-1 #
edge $-1 -1 $-1 $140 -2.250000000000003553 $138 2.649999999999995026 $136 $175 forward @7 unknown #
vertex $-1 -1 $-1 $156 $176 #
straight-curve $-1 -1 $-1 500 50.00000000000006395 71.00000000000001421 -10 0 0 F -0.310000999999999749 F 9.810000999999999749 #
vertex $-1 -1 $-1 $137 $177 #
straight-curve $-1 -1 $-1 250 50.00000000000007105 120 10 0 0 I I #
straight-curve $-1 -1 $-1 405 212.5000000000000284 120 0 10 0 I I #
coedge $-1 -1 $-1 $112 $110 $178 $179 forward $83 $-1 #
edge $180 -1 $-1 $181 0 $114 40.5 $134 $182 forward @7 unknown #
coedge $-1 -1 $-1 $183 $116 $111 $146 forward $153 $-1 #
edge $184 -1 $-1 $118 5 $185 7.750000000000010658 $111 $186 forward @7 unknown #
coedge $-1 -1 $-1 $187 $188 $112 $148 reversed $189 $-1 #
edge $-1 -1 $-1 $190 -50 $185 0 $112 $191 forward @7 tangent #
DXID-attrib $-1 -1 $-1 $-1 $113 @10 ASM ENTITY @36 6d290963-91ae-4d71-8f7d-febbd8ed82fc #
plane-surface $-1 -1 $-1 0 5.329070518200751394e-14 120 0 -1 5.921189464667494318e-16 0 -5.921189464667494712e-15 -10 forward_v I I I I #
point $-1 -1 $-1 405 7.105427357601001859e-14 120 #
coedge $-1 -1 $-1 $116 $136 $120 $156 reversed $153 $-1 #
loop $-1 -1 $-1 $-1 $183 $192 #
straight-curve $-1 -1 $-1 500 125.0000000000000568 70.00000000000004263 0 -10 -3.552713678800500929e-15 I I #
point $-1 -1 $-1 500 3.157967714489338717e-14 70 #
edge $-1 -1 $-1 $121 -0.785398163397448279 $138 0.785398163397448279 $120 $193 forward @7 unknown #
point $-1 -1 $-1 500 49.00000000000006395 70.00000000000001421 #
DXID-attrib $-1 -1 $-1 $-1 $126 @10 ASM ENTITY @36 413d2722-6c50-4277-8146-86fdaf8e1524 #
face $194 -1 $-1 $195 $196 $5 $-1 $197 forward single #
loop $-1 -1 $-1 $198 $199 $126 #
cone-surface $-1 -1 $-1 125 263.1250000000000568 29.99999999999996447 0 0 -1 -20.00000000000001421 0 0 1 I I 0 1 20.00000000000001421 forward I I I I #
coedge $-1 -1 $-1 $162 $162 $130 $164 forward $127 $-1 #
coedge $-1 -1 $-1 $163 $163 $200 $201 reversed $129 $-1 #
edge $202 -1 $-1 $203 0 $203 6.283185307179586232 $130 $204 forward @7 unknown #
coedge $-1 -1 $-1 $165 $165 $205 $206 forward $131 $-1 #
coedge $-1 -1 $-1 $166 $166 $132 $167 reversed $207 $-1 #
edge $-1 -1 $-1 $208 0 $208 6.283185307179586232 $132 $209 forward @7 unknown #
coedge $-1 -1 $-1 $171 $133 $210 $211 reversed $102 $-1 #
coedge $-1 -1 $-1 $136 $212 $133 $170 forward $153 $-1 #
edge $213 -1 $-1 $214 0 $140 34.99999999999999289 $133 $215 forward @7 unknown #
coedge $-1 -1 $-1 $134 $168 $216 $217 forward $102 $-1 #
DXID-attrib $-1 -1 $-1 $-1 $135 @10 ASM ENTITY @36 0e2c20e2-2ef3-4e13-8ce8-cd99c64da0f5 #
face $218 -1 $-1 $219 $220 $5 $-1 $221 forward single #
plane-surface $-1 -1 $-1 0 400 120 0 0 1 0 -10 0 forward_v I I I I #
straight-curve $-1 -1 $-1 500 50.00000000000007105 97.49999999999997158 0 0 -10 I I #
point $-1 -1 $-1 500 50.00000000000007105 71.00000000000001421 #
point $-1 -1 $-1 500 50.00000000000006395 120 #
coedge $-1 -1 $-1 $216 $222 $143 $179 reversed $223 $-1 #
edge $224 -1 $-1 $181 0 $190 7.750000000000010658 $143 $225 forward @7 unknown #
DXID-attrib $-1 -1 $-1 $-1 $144 @10 ASM ENTITY @36 dd2e0a28-3746-46ff-832e-dae600022b37 #
vertex $-1 -1 $-1 $179 $226 #
straight-curve $-1 -1 $-1 0 5.329070518200751394e-14 120 10 0 0 I I #
coedge $-1 -1 $-1 $227 $145 $188 $228 forward $153 $-1 #
DXID-attrib $-1 -1 $-1 $-1 $146 @10 ASM ENTITY @36 45090c55-863e-4c48-95bc-8a53b7eccb6a #
vertex $-1 -1 $-1 $228 $229 #
straight-curve $-1 -1 $-1 500 5.329070518200751394e-14 120 0 -5.921189464667494712e-15 -10 I I #
coedge $-1 -1 $-1 $230 $147 $222 $231 reversed $189 $-1 #
coedge $-1 -1 $-1 $147 $230 $183 $228 reversed $189 $-1 #
loop $-1 -1 $-1 $-1 $188 $232 #
vertex $-1 -1 $-1 $148 $233 #
straight-curve $-1 -1 $-1 500 8.881784197001252323e-15 42.49999999999990052 10 0 0 I I #
face $234 -1 $-1 $91 $153 $5 $-1 $235 forward single #
ellipse-curve $-1 -1 $-1 500 49.00000000000006395 71.00000000000001421 1 0 0 0 0.7071067811865476838 -0.7071067811865476838 1 I I #
DXID-attrib $-1 -1 $-1 $-1 $159 @10 ASM ENTITY @36 faf4ef27-1722-48e3-a7f9-5b5d34290d8b #
face $236 -1 $-1 $237 $238 $5 $-1 $239 forward single #
loop $-1 -1 $-1 $-1 $240 $159 #
plane-surface $-1 -1 $-1 125 263.1250000000000568 9.999999999999964473 0 2.4424906541753436e-16 -1 -10 0 0 forward_v I I I I #
loop $-1 -1 $-1 $-1 $241 $126 #
coedge $-1 -1 $-1 $199 $199 $240 $242 reversed $160 $-1 #
coedge $-1 -1 $-1 $200 $200 $163 $201 forward $243 $-1 #
edge $-1 -1 $-1 $244 -3.254051234036672646e-31 $244 6.283185307179586232 $200 $245 forward @7 unknown #
DXID-attrib $-1 -1 $-1 $-1 $164 @10 ASM ENTITY @36 fe96ad30-2ed0-41d8-8f00-82719ac21106 #
vertex $-1 -1 $-1 $164 $246 #
ellipse-curve $-1 -1 $-1 375 114.3750000000000711 9.999999999999928946 0 2.4424906541753436e-16 -1 -20 0 0 1 I I #
coedge $-1 -1 $-1 $205 $205 $165 $206 reversed $247 $-1 #
edge $-1 -1 $-1 $248 0 $248 6.283185307179586232 $165 $249 forward @7 unknown #
loop $-1 -1 $-1 $-1 $166 $250 #
vertex $-1 -1 $-1 $167 $251 #
ellipse-curve $-1 -1 $-1 470 50.00000000000006395 92.50000000000001421 0 1 0 7.500000000000003553 0 0 1 I I #
coedge $-1 -1 $-1 $252 $253 $168 $211 forward $220 $-1 #
edge $254 -1 $-1 $255 0 $214 50 $168 $256 forward @7 unknown #
coedge $-1 -1 $-1 $169 $257 $252 $258 forward $153 $-1 #
DXID-attrib $-1 -1 $-1 $-1 $170 @10 ASM ENTITY @36 39b61fea-c24c-491e-93eb-114c56fc2a7c #
vertex $-1 -1 $-1 $258 $259 #
straight-curve $-1 -1 $-1 500 400 120 0 -10 0 I I #
coedge $-1 -1 $-1 $260 $178 $171 $217 reversed $223 $-1 #
edge $261 -1 $-1 $255 0 $181 39.99999999999999289 $171 $262 forward @7 unknown #
DXID-attrib $-1 -1 $-1 $-1 $173 @10 ASM ENTITY @36 6c9f2d57-1edf-4a16-93ad-be0b24ebb283 #
face $263 -1 $-1 $-1 $243 $5 $-1 $264 forward single #
loop $-1 -1 $-1 $-1 $253 $173 #
plane-surface $-1 -1 $-1 0 400.0000000000000568 30 0 1 7.89491928622333496e-16 0 -7.894919286223335749e-15 10 forward_v I I I I #
coedge $-1 -1 $-1 $178 $265 $187 $231 forward $223 $-1 #
loop $-1 -1 $-1 $-1 $222 $266 #
DXID-attrib $-1 -1 $-1 $-1 $179 @10 ASM ENTITY @36 4dbf8f80-6389-4e73-a0d4-8189391b458c #
straight-curve $-1 -1 $-1 0 5.329070518200751394e-14 120 0 -5.921189464667494712e-15 -10 F 0 F 9.000000000000010658 #
point $-1 -1 $-1 0 5.329070518200751394e-14 120 #
coedge $-1 -1 $-1 $267 $183 $268 $269 forward $153 $-1 #
edge $-1 -1 $-1 $185 -3.141592653589793116 $270 -1.570796326794896558 $183 $271 forward @7 unknown #
point $-1 -1 $-1 500 0 42.49999999999989342 #
coedge $-1 -1 $-1 $188 $187 $272 $273 forward $189 $-1 #
edge $-1 -1 $-1 $274 1.570796326794896558 $190 3.141592653589793116 $222 $275 forward @7 unknown #
face $276 -1 $-1 $266 $189 $5 $-1 $277 reversed single #
point $-1 -1 $-1 0 0 42.49999999999989342 #
DXID-attrib $-1 -1 $-1 $-1 $192 @10 ASM ENTITY @36 70592a8c-834d-42b7-aba1-585e09c56ceb #
plane-surface $-1 -1 $-1 500 200.0000000000000284 74.99999999999994316 1 0 0 0 0 -10 forward_v I I I I #
DXID-attrib $-1 -1 $-1 $-1 $195 @10 ASM ENTITY @36 d8bc9d27-6689-4ffc-9b82-c151e5ff908b #
face $278 -1 $-1 $279 $280 $5 $-1 $281 forward single #
loop $-1 -1 $-1 $282 $283 $195 #
cone-surface $-1 -1 $-1 125 114.3750000000000711 29.99999999999992895 0 0 -1 -19.99999999999997158 0 0 1 I I 0 1 19.99999999999997158 forward I I I I #
coedge $-1 -1 $-1 $240 $240 $199 $242 forward $196 $-1 #
coedge $-1 -1 $-1 $241 $241 $284 $285 reversed $198 $-1 #
edge $286 -1 $-1 $287 0 $287 6.283185307179586232 $199 $288 forward @7 unknown #
loop $-1 -1 $-1 $289 $200 $219 #
vertex $-1 -1 $-1 $201 $290 #
ellipse-curve $-1 -1 $-1 375 114.3750000000000711 29.99999999999990052 0 -2.4424906541753436e-16 1 -20 0 0 1 I I #
point $-1 -1 $-1 355 114.3750000000000711 9.999999999999928946 #
loop $-1 -1 $-1 $-1 $205 $291 #
vertex $-1 -1 $-1 $206 $292 #
ellipse-curve $-1 -1 $-1 435 50.00000000000006395 92.50000000000001421 0 1 0 7.499999999999999112 0 0 1 I I #
face $293 -1 $-1 $294 $295 $5 $-1 $296 reversed single #
point $-1 -1 $-1 477.5 50.00000000000006395 92.50000000000001421 #
coedge $-1 -1 $-1 $297 $210 $212 $258 reversed $220 $-1 #
coedge $-1 -1 $-1 $210 $297 $260 $298 reversed $220 $-1 #
DXID-attrib $-1 -1 $-1 $-1 $211 @10 ASM ENTITY @36 a34cc861-518d-48f9-89cd-cc71e33874c8 #
vertex $-1 -1 $-1 $217 $299 #
straight-curve $-1 -1 $-1 0 400 120 10 0 0 I I #
coedge $-1 -1 $-1 $212 $300 $301 $302 forward $153 $-1 #
edge $303 -1 $-1 $304 0 $214 14 $212 $305 forward @7 unknown #
point $-1 -1 $-1 500 400 120 #
coedge $-1 -1 $-1 $306 $216 $253 $298 forward $223 $-1 #
DXID-attrib $-1 -1 $-1 $-1 $217 @10 ASM ENTITY @36 08b15151-b8c4-4a74-9587-a5bd7eecf342 #
straight-curve $-1 -1 $-1 0 400 120 0 -10 0 F 0 F 39.99999999999999289 #
DXID-attrib $-1 -1 $-1 $-1 $219 @10 ASM ENTITY @36 e0ba4265-faf7-4307-a2a0-f1d390d77dc0 #
plane-surface $-1 -1 $-1 0 0 29.99999999999990052 0 2.4424906541753436e-16 -1 0 10 2.4424906541753436e-15 forward_v I I I I #
coedge $-1 -1 $-1 $222 $307 $308 $309 reversed $223 $-1 #
face $310 -1 $-1 $192 $223 $5 $-1 $311 reversed single #
coedge $-1 -1 $-1 $300 $227 $312 $313 reversed $153 $-1 #
coedge $-1 -1 $-1 $272 $314 $227 $269 reversed $315 $-1 #
edge $316 -1 $-1 $270 1.25 $317 33.75 $268 $318 forward @7 unknown #
vertex $-1 -1 $-1 $228 $319 #
ellipse-curve $-1 -1 $-1 500 12.5 42.49999999999989342 1 0 0 0 12.5 0 1 I I #
coedge $-1 -1 $-1 $308 $268 $230 $273 reversed $315 $-1 #
edge $-1 -1 $-1 $274 -50 $270 0 $272 $320 forward @7 tangent #
vertex $-1 -1 $-1 $231 $321 #
ellipse-curve $-1 -1 $-1 0 12.5 42.49999999999989342 -1 -0 -0 0 12.5 0 1 I I #
DXID-attrib $-1 -1 $-1 $-1 $232 @10 ASM ENTITY @36 66fa43bd-1bd1-4152-8306-a87c973aad8b #
cone-surface $-1 -1 $-1 500 12.5 42.49999999999989342 -1 0 0 0 12.5 0 1 I I 0 -1 12.5 forward I I I I #
DXID-attrib $-1 -1 $-1 $-1 $237 @10 ASM ENTITY @36 d248f790-ae55-4fe2-9324-f56a591cadce #
face $322 -1 $-1 $323 $324 $5 $-1 $325 forward single #
loop $-1 -1 $-1 $-1 $326 $237 #
plane-surface $-1 -1 $-1 125 114.3750000000000711 9.999999999999928946 0 2.4424906541753436e-16 -1 -10 0 0 forward_v I I I I #
loop $-1 -1 $-1 $-1 $327 $195 #
coedge $-1 -1 $-1 $283 $283 $326 $328 reversed $238 $-1 #
coedge $-1 -1 $-1 $284 $284 $241 $285 forward $289 $-1 #
edge $-1 -1 $-1 $329 -7.592786212752230044e-31 $329 6.283185307179586232 $284 $330 forward @7 unknown #
DXID-attrib $-1 -1 $-1 $-1 $242 @10 ASM ENTITY @36 c3e0f800-4e2c-4dc2-9cda-b042506ba85f #
vertex $-1 -1 $-1 $242 $331 #
ellipse-curve $-1 -1 $-1 125 263.1250000000000568 9.999999999999964473 0 2.4424906541753436e-16 -1 -20.00000000000001421 0 0 1 I I #
loop $-1 -1 $-1 $332 $284 $219 #
point $-1 -1 $-1 355 114.3750000000000711 29.99999999999992895 #
face $333 -1 $-1 $334 $335 $5 $-1 $336 reversed single #
point $-1 -1 $-1 442.5 50.00000000000006395 92.50000000000001421 #
DXID-attrib $-1 -1 $-1 $-1 $250 @10 ASM ENTITY @36 66aaef58-f1be-4a82-89ef-5681078bfbc3 #
face $337 -1 $-1 $338 $339 $5 $-1 $340 forward single #
loop $-1 -1 $-1 $207 $341 $250 #
cone-surface $-1 -1 $-1 470 50.00000000000006395 92.50000000000001421 0 1 0 7.500000000000003553 0 0 1 I I 0 1 7.500000000000003553 forward I I I I #
coedge $-1 -1 $-1 $253 $252 $342 $343 forward $220 $-1 #
edge $344 -1 $-1 $255 -14 $345 -0 $253 $346 forward @7 unknown #
point $-1 -1 $-1 0 400 120 #
coedge $-1 -1 $-1 $257 $267 $347 $348 forward $153 $-1 #
coedge $-1 -1 $-1 $349 $342 $257 $302 reversed $350 $-1 #
edge $351 -1 $-1 $352 0 $304 5 $257 $353 forward @7 unknown #
DXID-attrib $-1 -1 $-1 $-1 $258 @10 ASM ENTITY @36 286d59a8-7334-4c42-ac8b-6e1ef5dc70c4 #
vertex $-1 -1 $-1 $302 $354 #
straight-curve $-1 -1 $-1 500 400 -20 0 1.421085471520200372e-14 10 F 0 F 14 #
coedge $-1 -1 $-1 $355 $260 $356 $357 forward $223 $-1 #
coedge $-1 -1 $-1 $265 $355 $358 $359 reversed $223 $-1 #
coedge $-1 -1 $-1 $314 $272 $265 $309 forward $315 $-1 #
edge $360 -1 $-1 $274 1.25 $361 33.75 $308 $362 forward @7 unknown #
DXID-attrib $-1 -1 $-1 $-1 $266 @10 ASM ENTITY @36 06a9491b-efec-44e1-8fc5-e44a3778aff9 #
plane-surface $-1 -1 $-1 0 200.0000000000000284 74.99999999999994316 1 0 0 0 0 -10 forward_v I I I I #
coedge $-1 -1 $-1 $363 $364 $267 $313 forward $365 $-1 #
edge $-1 -1 $-1 $366 -0.7853981633974479459 $317 0.7853981633974487231 $312 $367 forward @7 unknown #
coedge $-1 -1 $-1 $268 $308 $363 $368 reversed $315 $-1 #
loop $-1 -1 $-1 $-1 $314 $219 #
DXID-attrib $-1 -1 $-1 $-1 $269 @10 ASM ENTITY @36 125a5ba6-acda-4ed2-a5b7-65f04194073a #
vertex $-1 -1 $-1 $313 $369 #
straight-curve $-1 -1 $-1 500 0 29.99999999999990052 0 10 2.4424906541753436e-15 I I #
point $-1 -1 $-1 500 12.5 29.99999999999989342 #
straight-curve $-1 -1 $-1 500 12.50000000000000355 29.99999999999990052 10 0 0 I I #
point $-1 -1 $-1 0 12.5 29.99999999999989342 #
DXID-attrib $-1 -1 $-1 $-1 $279 @10 ASM ENTITY @36 d31867eb-14fb-48fa-b949-b7a8e3ff0a4c #
face $370 -1 $-1 $371 $372 $5 $-1 $373 forward single #
loop $-1 -1 $-1 $374 $375 $279 #
cone-surface $-1 -1 $-1 375 263.1250000000000568 29.99999999999996447 0 0 -1 -20.00000000000000355 0 0 1 I I 0 1 20.00000000000000355 forward I I I I #
coedge $-1 -1 $-1 $326 $326 $283 $328 forward $280 $-1 #
coedge $-1 -1 $-1 $327 $327 $376 $377 reversed $282 $-1 #
edge $378 -1 $-1 $379 0 $379 6.283185307179586232 $283 $380 forward @7 unknown #
vertex $-1 -1 $-1 $285 $381 #
ellipse-curve $-1 -1 $-1 125 263.1250000000000568 29.99999999999990052 0 -2.4424906541753436e-16 1 -20.00000000000001421 0 0 1 I I #
point $-1 -1 $-1 104.9999999999999858 263.1250000000000568 9.999999999999964473 #
loop $-1 -1 $-1 $382 $376 $219 #
DXID-attrib $-1 -1 $-1 $-1 $291 @10 ASM ENTITY @36 cee7319b-b592-4e83-b708-df047a58be66 #
face $383 -1 $-1 $250 $384 $5 $-1 $385 forward single #
loop $-1 -1 $-1 $247 $386 $291 #
cone-surface $-1 -1 $-1 435 50.00000000000006395 92.50000000000001421 0 1 0 7.499999999999999112 0 0 1 I I 0 1 7.499999999999999112 forward I I I I #
DXID-attrib $-1 -1 $-1 $-1 $294 @10 ASM ENTITY @36 15ed4140-6cad-4123-a9e5-48159aa4ec7a #
face $387 -1 $-1 $232 $350 $5 $-1 $388 forward single #
loop $-1 -1 $-1 $-1 $389 $294 #
plane-surface $-1 -1 $-1 470 60.00000000000006395 92.50000000000001421 0 -1 0 0 0 -10 forward_v I I I I #
coedge $-1 -1 $-1 $341 $341 $389 $390 forward $295 $-1 #
coedge $-1 -1 $-1 $301 $356 $297 $343 reversed $350 $-1 #
edge $391 -1 $-1 $304 0 $345 50 $297 $392 forward @7 unknown #
DXID-attrib $-1 -1 $-1 $-1 $298 @10 ASM ENTITY @36 cbc34acf-5322-4097-97e1-ff47a344f13f #
vertex $-1 -1 $-1 $357 $393 #
straight-curve $-1 -1 $-1 0 400 -20 0 -1.421085471520200372e-14 -10 I I #
coedge $-1 -1 $-1 $394 $395 $300 $348 reversed $396 $-1 #
edge $397 -1 $-1 $366 1.250000000000000444 $352 5 $300 $398 forward @7 unknown #
coedge $-1 -1 $-1 $356 $301 $395 $399 forward $350 $-1 #
loop $-1 -1 $-1 $-1 $301 $338 #
DXID-attrib $-1 -1 $-1 $-1 $302 @10 ASM ENTITY @36 604e49e5-fdde-4285-89da-cd16d0a36b9e #
vertex $-1 -1 $-1 $399 $400 #
straight-curve $-1 -1 $-1 500 350 -20.00000000000000711 0 10 1.776356839400250465e-15 F 0 F 5 #
point $-1 -1 $-1 500 400 -20 #
coedge $-1 -1 $-1 $307 $306 $401 $402 forward $223 $-1 #
coedge $-1 -1 $-1 $342 $349 $306 $357 reversed $350 $-1 #
edge $403 -1 $-1 $345 -5 $404 -0 $356 $405 forward @7 unknown #
coedge $-1 -1 $-1 $364 $363 $307 $359 forward $365 $-1 #
edge $-1 -1 $-1 $361 -0.7853981633974487231 $406 0.7853981633974479459 $358 $407 forward @7 unknown #
DXID-attrib $-1 -1 $-1 $-1 $309 @10 ASM ENTITY @36 4835ba44-9317-4f40-875f-5b1b8327b542 #
vertex $-1 -1 $-1 $359 $408 #
straight-curve $-1 -1 $-1 0 0 29.99999999999990052 0 10 2.4424906541753436e-15 F 0 F 40.00000000000000711 #
coedge $-1 -1 $-1 $358 $312 $314 $368 forward $365 $-1 #
coedge $-1 -1 $-1 $312 $358 $394 $409 forward $365 $-1 #
loop $-1 -1 $-1 $-1 $358 $410 #
vertex $-1 -1 $-1 $409 $411 #
ellipse-curve $-1 -1 $-1 500 337.5 17.49999999999998579 1 0 0 0 8.838834764831847934 8.838834764831840829 1 I I #
edge $-1 -1 $-1 $317 -25 $361 25 $314 $412 forward @7 tangent #
point $-1 -1 $-1 500 337.5 29.99999999999998579 #
DXID-attrib $-1 -1 $-1 $-1 $323 @10 ASM ENTITY @36 5797698a-e000-4a23-8e21-012d1850dbbb #
face $413 -1 $-1 $414 $415 $5 $-1 $416 forward single #
loop $-1 -1 $-1 $-1 $417 $323 #
plane-surface $-1 -1 $-1 375 263.1250000000000568 9.999999999999964473 0 2.4424906541753436e-16 -1 -10 0 0 forward_v I I I I #
loop $-1 -1 $-1 $-1 $418 $279 #
coedge $-1 -1 $-1 $375 $375 $417 $419 reversed $324 $-1 #
coedge $-1 -1 $-1 $376 $376 $327 $377 forward $332 $-1 #
edge $-1 -1 $-1 $420 -3.254051234036678339e-31 $420 6.283185307179586232 $376 $421 forward @7 unknown #
DXID-attrib $-1 -1 $-1 $-1 $328 @10 ASM ENTITY @36 80c43342-4794-4db4-a6ba-6e46ff8b6dd3 #
vertex $-1 -1 $-1 $328 $422 #
ellipse-curve $-1 -1 $-1 125 114.3750000000000711 9.999999999999928946 0 2.4424906541753436e-16 -1 -19.99999999999997158 0 0 1 I I #
point $-1 -1 $-1 104.9999999999999858 263.1250000000000568 29.99999999999996447 #
loop $-1 -1 $-1 $423 $424 $219 #
DXID-attrib $-1 -1 $-1 $-1 $334 @10 ASM ENTITY @36 28ada999-256f-4010-968a-11471dd71e77 #
loop $-1 -1 $-1 $-1 $425 $334 #
plane-surface $-1 -1 $-1 435 60.00000000000006395 92.50000000000001421 0 -1 0 0 0 -10 forward_v I I I I #
coedge $-1 -1 $-1 $386 $386 $425 $426 forward $335 $-1 #
DXID-attrib $-1 -1 $-1 $-1 $338 @10 ASM ENTITY @36 6e15a3ed-8a11-4caa-be6a-5fcfb376e519 #
plane-surface $-1 -1 $-1 500 400 -20 0 1.776356839400250563e-16 -1 0 -10 -1.776356839400250465e-15 forward_v I I I I #
coedge $-1 -1 $-1 $389 $389 $341 $390 reversed $339 $-1 #
edge $427 -1 $-1 $428 -6.283185307179586232 $428 -0 $341 $429 forward @7 unknown #
DXID-attrib $-1 -1 $-1 $-1 $343 @10 ASM ENTITY @36 54468a96-9b49-452f-b18f-97d2a17ea5e1 #
straight-curve $-1 -1 $-1 500 400 -20 -10 0 0 I I #
point $-1 -1 $-1 0 400 -20 #
coedge $-1 -1 $-1 $401 $347 $364 $409 reversed $396 $-1 #
coedge $-1 -1 $-1 $347 $401 $349 $399 reversed $396 $-1 #
loop $-1 -1 $-1 $-1 $394 $430 #
DXID-attrib $-1 -1 $-1 $-1 $348 @10 ASM ENTITY @36 f0ef7d0b-6170-4b40-925e-12c6158a9860 #
straight-curve $-1 -1 $-1 500 350 29.99999999999999289 -0 -0 -10 F -0 F 5 #
edge $431 -1 $-1 $352 0 $404 50 $395 $432 forward @7 unknown #
point $-1 -1 $-1 500 350 -20.00000000000000711 #
coedge $-1 -1 $-1 $395 $394 $355 $402 reversed $396 $-1 #
edge $433 -1 $-1 $404 -5 $406 -1.250000000000000444 $401 $434 forward @7 unknown #
DXID-attrib $-1 -1 $-1 $-1 $357 @10 ASM ENTITY @36 3ebf806c-130d-4b2a-af3c-5dad614a9d2c #
vertex $-1 -1 $-1 $402 $435 #
straight-curve $-1 -1 $-1 0 350 -20.00000000000000711 0 -10 -1.776356839400250465e-15 I I #
vertex $-1 -1 $-1 $359 $436 #
ellipse-curve $-1 -1 $-1 0 337.5 17.49999999999998579 -1 -0 -0 0 8.838834764831847934 8.838834764831840829 1 I I #
point $-1 -1 $-1 0 337.5 29.99999999999998579 #
edge $-1 -1 $-1 $406 -25 $366 25 $394 $437 forward @7 tangent #
face $438 -1 $-1 $430 $365 $5 $-1 $439 forward single #
point $-1 -1 $-1 500 350 17.49999999999998579 #
straight-curve $-1 -1 $-1 250 337.5 29.99999999999998224 -10 -0 -0 F -28.87500099999999748 F 28.87500100000000103 #
DXID-attrib $-1 -1 $-1 $-1 $371 @10 ASM ENTITY @36 a3f4f045-2678-488b-a9ba-1be91d3988c1 #
face $440 -1 $-1 $410 $441 $5 $-1 $442 forward single #
loop $-1 -1 $-1 $443 $444 $371 #
cone-surface $-1 -1 $-1 250 188.7500000000000568 29.99999999999994671 0 0 -1 -24.99999999999999289 0 0 1 I I 0 1 24.99999999999999289 forward I I I I #
coedge $-1 -1 $-1 $417 $417 $375 $419 forward $372 $-1 #
coedge $-1 -1 $-1 $418 $418 $424 $445 reversed $374 $-1 #
edge $446 -1 $-1 $447 0 $447 6.283185307179586232 $375 $448 forward @7 unknown #
vertex $-1 -1 $-1 $377 $449 #
ellipse-curve $-1 -1 $-1 125 114.3750000000000711 29.99999999999990052 0 -2.4424906541753436e-16 1 -19.99999999999997158 0 0 1 I I #
point $-1 -1 $-1 105.0000000000000284 114.3750000000000711 9.999999999999928946 #
loop $-1 -1 $-1 $315 $450 $219 #
coedge $-1 -1 $-1 $424 $424 $418 $445 forward $382 $-1 #
coedge $-1 -1 $-1 $425 $425 $386 $426 reversed $384 $-1 #
edge $451 -1 $-1 $452 -6.283185307179586232 $452 -0 $386 $453 forward @7 unknown #
DXID-attrib $-1 -1 $-1 $-1 $390 @10 ASM ENTITY @36 f9a1b21f-0fb3-4c01-b3fc-dab2ad5bfa7e #
vertex $-1 -1 $-1 $390 $454 #
ellipse-curve $-1 -1 $-1 470 60.00000000000006395 92.50000000000001421 0 1 0 7.500000000000003553 0 0 1 I I #
face $455 -1 $-1 $291 $396 $5 $-1 $456 forward single #
DXID-attrib $-1 -1 $-1 $-1 $399 @10 ASM ENTITY @36 9695e230-f855-466f-a5c1-7356952e0c8d #
straight-curve $-1 -1 $-1 500 350 -20.00000000000000711 -10 0 0 I I #
DXID-attrib $-1 -1 $-1 $-1 $402 @10 ASM ENTITY @36 8f1a41fe-5cf7-4048-8547-0ce338bb33da #
straight-curve $-1 -1 $-1 0 350 29.99999999999999289 0 0 10 I I #
point $-1 -1 $-1 0 350 -20.00000000000000711 #
point $-1 -1 $-1 0 350 17.49999999999998579 #
straight-curve $-1 -1 $-1 250 350 17.49999999999998579 10 0 0 F -28.87500100000000103 F 28.87500099999999748 #
DXID-attrib $-1 -1 $-1 $-1 $410 @10 ASM ENTITY @36 a9cc57bb-0ad2-4109-b3d3-9de031e70edf #
cone-surface $-1 -1 $-1 250 337.5 17.49999999999998579 1 0 0 0 8.838834764831847934 8.838834764831840829 1 I I 0 -1 12.5 forward I I I I #
DXID-attrib $-1 -1 $-1 $-1 $414 @10 ASM ENTITY @36 4bcfcd2f-c78c-45a7-a334-fb98ebcc0257 #
loop $-1 -1 $-1 $-1 $457 $414 #
plane-surface $-1 -1 $-1 250 188.7500000000000568 -5.329070518200751394e-14 0 2.4424906541753436e-16 -1 -10 0 0 forward_v I I I I #
loop $-1 -1 $-1 $-1 $458 $371 #
coedge $-1 -1 $-1 $444 $444 $457 $459 reversed $415 $-1 #
edge $-1 -1 $-1 $460 -7.592786212752236175e-31 $460 6.283185307179586232 $424 $461 forward @7 unknown #
DXID-attrib $-1 -1 $-1 $-1 $419 @10 ASM ENTITY @36 ed6a351f-7f07-41e8-a2c5-b3ca88e16a39 #
vertex $-1 -1 $-1 $419 $462 #
ellipse-curve $-1 -1 $-1 375 263.1250000000000568 9.999999999999964473 0 2.4424906541753436e-16 -1 -20.00000000000000355 0 0 1 I I #
point $-1 -1 $-1 105.0000000000000284 114.3750000000000711 29.99999999999992895 #
coedge $-1 -1 $-1 $450 $450 $458 $463 forward $423 $-1 #
DXID-attrib $-1 -1 $-1 $-1 $426 @10 ASM ENTITY @36 a3eb4784-27d9-434f-a985-8d15e0f85e50 #
vertex $-1 -1 $-1 $426 $464 #
ellipse-curve $-1 -1 $-1 435 60.00000000000006395 92.50000000000001421 0 1 0 7.499999999999999112 0 0 1 I I #
point $-1 -1 $-1 477.5 60.00000000000006395 92.50000000000001421 #
DXID-attrib $-1 -1 $-1 $-1 $430 @10 ASM ENTITY @36 dc66c22a-1a2e-4152-a348-9320b627ef57 #
plane-surface $-1 -1 $-1 500 350 -20.00000000000000711 0 -1 0 0 0 10 forward_v I I I I #
coedge $-1 -1 $-1 $457 $457 $444 $459 forward $441 $-1 #
coedge $-1 -1 $-1 $458 $458 $450 $463 reversed $443 $-1 #
edge $465 -1 $-1 $466 0 $466 6.283185307179586232 $444 $467 forward @7 unknown #
vertex $-1 -1 $-1 $445 $468 #
ellipse-curve $-1 -1 $-1 375 263.1250000000000568 29.99999999999990052 0 -2.4424906541753436e-16 1 -20.00000000000000355 0 0 1 I I #
point $-1 -1 $-1 355 263.1250000000000568 9.999999999999964473 #
edge $-1 -1 $-1 $469 -4.338734978715563528e-31 $469 6.283185307179586232 $450 $470 forward @7 unknown #
point $-1 -1 $-1 442.5 60.00000000000006395 92.50000000000001421 #
DXID-attrib $-1 -1 $-1 $-1 $459 @10 ASM ENTITY @36 4075b9ee-b8f6-4b3c-8be3-4e21362ae137 #
vertex $-1 -1 $-1 $459 $471 #
ellipse-curve $-1 -1 $-1 250 188.7500000000000568 -5.329070518200751394e-14 0 2.4424906541753436e-16 -1 -24.99999999999999289 0 0 1 I I #
point $-1 -1 $-1 355 263.1250000000000568 29.99999999999996447 #
vertex $-1 -1 $-1 $463 $472 #
ellipse-curve $-1 -1 $-1 250 188.7500000000000568 29.99999999999990052 0 -2.4424906541753436e-16 1 -24.99999999999999289 0 0 1 I I #
point $-1 -1 $-1 225 188.7500000000000568 -5.329070518200751394e-14 #
point $-1 -1 $-1 225 188.7500000000000568 29.99999999999994671 #
End-of-ACIS-data 