700 0 1 0           
30 Autodesk Translation Framework 20 ASM 230.5.0.65535 NT 24 Fri Feb 21 22:50:00 2025 
1 9.999999999999999547e-07 1.000000000000000036e-10 
body $1 -1 $-1 $2 $-1 $3 #
rgb_color-st-attrib $-1 -1 $4 $-1 $0 0.9960784313725490335 0.9960784313725490335 1 #
lump $-1 -1 $-1 $-1 $5 $0 #
transform $-1 -1 1 0 0 0 1 0 0 0 1 0 0 0 1 no_rotate no_reflect no_shear #
DXID-attrib $-1 -1 $-1 $1 $0 @10 ASM ENTITY @101 BASEMOLDR_2.IPT|:|37F758FBBEDE245C6C7A02A1E41B9FF6AED264B2|:|D2F75E8204FEDF2EACD261E2461B2964E3BFD5BE #
shell $-1 -1 $-1 $-1 $-1 $6 $-1 $2 #
face $7 -1 $-1 $8 $9 $5 $-1 $10 forward single #
DXID-attrib $-1 -1 $-1 $-1 $6 @10 ASM ENTITY @36 b0e60075-47a3-4ac3-8e48-95f701fe4636 #
face $11 -1 $-1 $12 $13 $5 $-1 $14 forward single #
loop $-1 -1 $-1 $15 $16 $6 #
cone-surface $-1 -1 $-1 250 150.0000000000001421 -80.00000000000015632 0 7.993605777301127288e-16 -1 -59.99999999999999289 0 0 1 I I 0 1 59.99999999999999289 forward I I I I #
DXID-attrib $-1 -1 $-1 $-1 $8 @10 ASM ENTITY @36 6d343c18-1c95-4980-95c4-19dd9bf4296f #
face $17 -1 $-1 $18 $19 $5 $-1 $20 reversed single #
loop $-1 -1 $-1 $-1 $21 $8 #
plane-surface $-1 -1 $-1 250 150.0000000000004547 -480.0000000000001137 0 7.89491928622333496e-16 -1 -10 0 0 forward_v I I I I #
loop $-1 -1 $-1 $-1 $22 $6 #
coedge $-1 -1 $-1 $16 $16 $21 $23 reversed $9 $-1 #
DXID-attrib $-1 -1 $-1 $-1 $12 @10 ASM ENTITY @36 6904bde7-f38b-4ed9-a3ea-00931ba82d94 #
face $24 -1 $-1 $25 $26 $5 $-1 $27 reversed single #
loop $-1 -1 $-1 $-1 $28 $12 #
cone-surface $-1 -1 $-1 500 336.0000000000001137 -60.99999999999997158 1 -1.051814540294682338e-32 1.776356839400250502e-17 0 0 0.9999999999999964473 1 I I 0 1 0.9999999999999964473 reversed I I F 0 F 1.570796326794896558 #
coedge $-1 -1 $-1 $21 $21 $16 $23 forward $13 $-1 #
coedge $-1 -1 $-1 $22 $22 $29 $30 reversed $15 $-1 #
edge $31 -1 $-1 $32 0 $32 6.283185307179586232 $16 $33 forward @7 unknown #
DXID-attrib $-1 -1 $-1 $-1 $18 @10 ASM ENTITY @36 e68cb92d-5a56-4a84-81a6-e86454d7e73b #
face $34 -1 $-1 $35 $36 $5 $-1 $37 reversed single #
loop $-1 -1 $-1 $-1 $38 $18 #
plane-surface $-1 -1 $-1 250 335.0000000000000568 -69.99999999999997158 0 -1 -5.92118946466750122e-16 0 5.921189464667501023e-15 -10 forward_v I I I I #
coedge $-1 -1 $-1 $39 $40 $41 $42 reversed $19 $-1 #
coedge $-1 -1 $-1 $29 $29 $22 $30 forward $43 $-1 #
edge $-1 -1 $-1 $44 0 $44 6.283185307179586232 $29 $45 forward @7 unknown #
DXID-attrib $-1 -1 $-1 $-1 $23 @10 ASM ENTITY @36 0cb1c6ee-8c59-454a-b45f-b5f12e36be46 #
vertex $-1 -1 $-1 $23 $46 #
ellipse-curve $-1 -1 $-1 250 150.0000000000004547 -480.0000000000001137 0 7.89491928622333496e-16 -1 -59.99999999999999289 0 0 1 I I #
DXID-attrib $-1 -1 $-1 $-1 $25 @10 ASM ENTITY @36 8a52345d-0eb8-4ee7-9f12-47d3a4675a29 #
face $47 -1 $-1 $48 $49 $5 $-1 $50 reversed single #
loop $-1 -1 $-1 $-1 $51 $25 #
cone-surface $-1 -1 $-1 500 349.0000000000000568 -58.99999999999997158 -1 1.147434043957835763e-32 -1.776356839400250502e-17 0 1.000000000000014211 0 1 I I -0 -1 1.000000000000014211 forward I I F 0 F 1.570796326794896558 #
coedge $-1 -1 $-1 $52 $53 $40 $54 forward $26 $-1 #
coedge $-1 -1 $-1 $55 $28 $56 $57 reversed $19 $-1 #
coedge $-1 -1 $-1 $28 $55 $38 $54 reversed $19 $-1 #
coedge $-1 -1 $-1 $58 $59 $28 $42 forward $60 $-1 #
edge $-1 -1 $-1 $61 0 $62 1.570796326794896558 $41 $63 forward @7 unknown #
loop $-1 -1 $-1 $64 $29 $65 #
vertex $-1 -1 $-1 $30 $66 #
ellipse-curve $-1 -1 $-1 250 150.0000000000001421 -80.00000000000015632 0 -7.89491928622333496e-16 1 -59.99999999999999289 0 0 1 I I #
point $-1 -1 $-1 190 150.0000000000004547 -480.0000000000001137 #
DXID-attrib $-1 -1 $-1 $-1 $35 @10 ASM ENTITY @36 92bf57c2-d382-4120-ac34-1b604011cdbc #
face $67 -1 $-1 $68 $69 $5 $-1 $70 reversed single #
loop $-1 -1 $-1 $-1 $71 $35 #
plane-surface $-1 -1 $-1 500 350.0000000000000568 -79.99999999999997158 -0 -1 -6.459479416000912932e-16 0 -6.459479416000912932e-15 10 forward_v I I I I #
coedge $-1 -1 $-1 $72 $73 $74 $75 reversed $36 $-1 #
coedge $-1 -1 $-1 $76 $38 $77 $78 reversed $26 $-1 #
coedge $-1 -1 $-1 $38 $76 $58 $79 reversed $26 $-1 #
edge $-1 -1 $-1 $62 -500 $80 7.473591809732356052e-46 $38 $81 forward @7 tangent #
coedge $-1 -1 $-1 $40 $39 $82 $83 reversed $19 $-1 #
coedge $-1 -1 $-1 $84 $85 $39 $57 forward $69 $-1 #
edge $-1 -1 $-1 $86 0 $61 500 $56 $87 forward @7 tangent #
coedge $-1 -1 $-1 $88 $41 $53 $79 forward $60 $-1 #
coedge $-1 -1 $-1 $41 $74 $84 $89 forward $60 $-1 #
loop $-1 -1 $-1 $-1 $58 $90 #
vertex $-1 -1 $-1 $42 $91 #
vertex $-1 -1 $-1 $42 $92 #
ellipse-curve $-1 -1 $-1 0 336.0000000000001137 -60.99999999999997868 1 0 0 0 0 0.9999999999999964473 1 I I #
loop $-1 -1 $-1 $-1 $93 $65 #
face $94 -1 $-1 $95 $43 $5 $-1 $96 forward single #
point $-1 -1 $-1 190 150.0000000000001421 -80.00000000000015632 #
DXID-attrib $-1 -1 $-1 $-1 $48 @10 ASM ENTITY @36 6dc0c26f-ac59-49b2-9b2e-0e0a27aa446e #
face $97 -1 $-1 $98 $99 $5 $-1 $100 reversed single #
loop $-1 -1 $-1 $-1 $56 $48 #
plane-surface $-1 -1 $-1 500 350.0000000000000568 -59.99999999999996447 -1.776356839400250502e-17 -5.92118946466750122e-16 1 -10 1.147434043957835735e-31 -1.776356839400250563e-16 forward_v I I I I #
coedge $-1 -1 $-1 $101 $102 $72 $103 forward $49 $-1 #
coedge $-1 -1 $-1 $104 $51 $71 $103 reversed $36 $-1 #
coedge $-1 -1 $-1 $51 $104 $105 $106 reversed $36 $-1 #
coedge $-1 -1 $-1 $59 $107 $51 $75 forward $60 $-1 #
edge $-1 -1 $-1 $108 8.881784197001126106e-15 $109 1.570796326794896558 $74 $110 forward @7 unknown #
coedge $-1 -1 $-1 $53 $52 $93 $111 reversed $26 $-1 #
coedge $-1 -1 $-1 $82 $112 $52 $78 forward $113 $-1 #
edge $-1 -1 $-1 $114 -0.4999999999999991118 $80 1.400000000000001243 $77 $115 forward @7 unknown #
edge $-1 -1 $-1 $62 8.599999999999997868 $116 10.49999999999999822 $58 $117 forward @7 unknown #
vertex $-1 -1 $-1 $83 $118 #
straight-curve $-1 -1 $-1 500 335.0000000000000568 -60.99999999999997158 1 -1.051814540294682338e-32 1.776356839400250502e-17 F -500 F 7.473591809732356052e-46 #
coedge $-1 -1 $-1 $119 $77 $55 $83 forward $113 $-1 #
edge $-1 -1 $-1 $80 -1.570796326794896558 $86 0 $82 $120 forward @7 unknown #
coedge $-1 -1 $-1 $105 $56 $59 $89 reversed $69 $-1 #
coedge $-1 -1 $-1 $56 $105 $119 $121 reversed $69 $-1 #
vertex $-1 -1 $-1 $57 $122 #
straight-curve $-1 -1 $-1 500 336.0000000000001137 -59.99999999999997158 -1 1.051814540294682338e-32 -1.776356839400250502e-17 F 0 F 500 #
coedge $-1 -1 $-1 $123 $58 $124 $125 forward $60 $-1 #
edge $-1 -1 $-1 $109 2.600000000000001421 $61 3.899999999999998579 $59 $126 forward @7 unknown #
face $127 -1 $-1 $65 $60 $5 $-1 $128 forward single #
point $-1 -1 $-1 -3.552713678800501127e-16 336.0000000000001137 -59.99999999999998579 #
point $-1 -1 $-1 -3.375077994860476415e-16 335 -60.99999999999997868 #
coedge $-1 -1 $-1 $129 $124 $76 $111 forward $64 $-1 #
DXID-attrib $-1 -1 $-1 $-1 $65 @10 ASM ENTITY @36 c3a62f7b-bb44-4b91-8134-1f1813066d9c #
face $130 -1 $-1 $-1 $131 $5 $-1 $132 forward single #
plane-surface $-1 -1 $-1 0 400.0000000000001137 -79.99999999999997158 0 7.89491928622333496e-16 -1 10 0 0 forward_v I I I I #
DXID-attrib $-1 -1 $-1 $-1 $68 @10 ASM ENTITY @36 c2b9402f-81d8-49ef-8adc-132ddac5a9c7 #
face $133 -1 $-1 $134 $135 $5 $-1 $136 reversed single #
loop $-1 -1 $-1 $-1 $137 $68 #
cone-surface $-1 -1 $-1 500 337.5 17.49999999999999289 1 0 0 0 12.5 8.881784197001252323e-15 1 I I -0 -1 12.5 forward I I F 0 F 1.570796326794895892 #
coedge $-1 -1 $-1 $138 $71 $107 $139 reversed $49 $-1 #
coedge $-1 -1 $-1 $71 $138 $140 $141 reversed $49 $-1 #
edge $-1 -1 $-1 $142 0 $108 500 $71 $143 forward @7 tangent #
coedge $-1 -1 $-1 $73 $72 $144 $145 reversed $36 $-1 #
coedge $-1 -1 $-1 $85 $84 $73 $106 forward $69 $-1 #
edge $-1 -1 $-1 $109 -500 $146 0 $105 $147 forward @7 tangent #
coedge $-1 -1 $-1 $74 $148 $101 $139 forward $60 $-1 #
vertex $-1 -1 $-1 $75 $149 #
vertex $-1 -1 $-1 $75 $150 #
ellipse-curve $-1 -1 $-1 0 349.0000000000000568 -58.99999999999997868 -1 0 0 0 1.000000000000014211 0 1 I I #
edge $-1 -1 $-1 $116 -12.5 $114 37.5 $93 $151 forward @7 unknown #
coedge $-1 -1 $-1 $77 $152 $129 $153 reversed $113 $-1 #
loop $-1 -1 $-1 $-1 $77 $154 #
vertex $-1 -1 $-1 $78 $155 #
straight-curve $-1 -1 $-1 500 335.0000000000001137 -74.99999999999998579 0 -5.921189464667501023e-15 10 I I #
vertex $-1 -1 $-1 $111 $156 #
straight-curve $-1 -1 $-1 0 335 24.99999999999999645 0 5.921189464667501023e-15 -10 I I #
point $-1 -1 $-1 500 335 -60.99999999999997158 #
coedge $-1 -1 $-1 $144 $82 $85 $121 forward $113 $-1 #
ellipse-curve $-1 -1 $-1 500 336.0000000000001137 -60.99999999999997158 -1 -0 -0 0 0 0.9999999999999964473 1 I I #
edge $-1 -1 $-1 $86 -3.900000000000005684 $146 -2.600000000000008527 $119 $157 forward @7 unknown #
point $-1 -1 $-1 500 336.0000000000001137 -59.99999999999997158 #
coedge $-1 -1 $-1 $158 $88 $159 $160 reversed $60 $-1 #
coedge $-1 -1 $-1 $93 $161 $88 $125 reversed $64 $-1 #
edge $162 -1 $-1 $116 6.500000000000007105 $163 45 $124 $164 forward @7 unknown #
straight-curve $-1 -1 $-1 0 375.0000000000000568 -59.99999999999994316 0 -10 -5.921189464667501023e-15 I I #
DXID-attrib $-1 -1 $-1 $-1 $90 @10 ASM ENTITY @36 2e71b91c-bcce-4106-936f-5c0567e9f29c #
plane-surface $-1 -1 $-1 0 400 120 -1 0 0 0 7.894919286223335749e-15 -10 forward_v I I I I #
coedge $-1 -1 $-1 $161 $93 $112 $153 forward $64 $-1 #
DXID-attrib $-1 -1 $-1 $-1 $95 @10 ASM ENTITY @36 b398e94d-3dea-4a3c-87b1-84415c1fb7d8 #
loop $-1 -1 $-1 $-1 $165 $95 #
plane-surface $-1 -1 $-1 250 -49.99999999999992895 19.99999999999966249 0 -1 -7.89491928622333496e-16 0 7.894919286223335749e-15 -10 forward_v I I I I #
DXID-attrib $-1 -1 $-1 $-1 $98 @10 ASM ENTITY @36 d1bc9e9e-d7fa-4d95-a92f-7ac6a0315685 #
face $166 -1 $-1 $167 $168 $5 $-1 $169 forward single #
loop $-1 -1 $-1 $-1 $170 $98 #
plane-surface $-1 -1 $-1 0 0 29.99999999999990052 0 2.4424906541753436e-16 -1 0 10 2.4424906541753436e-15 forward_v I I I I #
coedge $-1 -1 $-1 $171 $172 $173 $174 reversed $99 $-1 #
coedge $-1 -1 $-1 $102 $101 $171 $175 forward $49 $-1 #
edge $-1 -1 $-1 $176 0.25 $108 7.899999999999998579 $107 $177 forward @7 unknown #
coedge $-1 -1 $-1 $173 $144 $102 $141 forward $113 $-1 #
edge $-1 -1 $-1 $142 2.100000000000001421 $178 9.749999999999998224 $140 $179 forward @7 unknown #
vertex $-1 -1 $-1 $103 $180 #
straight-curve $-1 -1 $-1 500 350.0000000000000568 -58.99999999999997158 -1 1.147434043957835763e-32 -1.776356839400250502e-17 F 0 F 500 #
coedge $-1 -1 $-1 $140 $119 $104 $145 forward $113 $-1 #
edge $-1 -1 $-1 $146 -1.570796326794896558 $142 0 $144 $181 forward @7 unknown #
vertex $-1 -1 $-1 $145 $182 #
straight-curve $-1 -1 $-1 500 349.0000000000000568 -59.99999999999996447 1 -1.147434043957835763e-32 1.776356839400250502e-17 F -500 F 0 #
coedge $-1 -1 $-1 $107 $183 $184 $185 forward $60 $-1 #
point $-1 -1 $-1 0 350.0000000000000568 -58.99999999999998579 #
point $-1 -1 $-1 -3.552713678800501127e-16 349.0000000000000568 -59.99999999999997158 #
straight-curve $-1 -1 $-1 125 335.0000000000001137 -80.00000000000001421 10 0 0 I I #
coedge $-1 -1 $-1 $112 $186 $187 $188 reversed $113 $-1 #
edge $189 -1 $-1 $114 6.500000000000007105 $190 45 $129 $191 forward @7 unknown #
face $192 -1 $-1 $193 $113 $5 $-1 $194 forward single #
point $-1 -1 $-1 500 335.0000000000000568 -79.99999999999997158 #
point $-1 -1 $-1 0 335.0000000000000568 -79.99999999999998579 #
straight-curve $-1 -1 $-1 500 375.0000000000001137 -59.99999999999994316 0 10 5.921189464667501023e-15 I I #
coedge $-1 -1 $-1 $195 $123 $196 $197 reversed $60 $-1 #
coedge $-1 -1 $-1 $165 $198 $123 $160 forward $131 $-1 #
edge $199 -1 $-1 $200 -19.99999999999999645 $163 -0 $123 $201 forward @7 unknown #
coedge $-1 -1 $-1 $124 $129 $165 $202 reversed $64 $-1 #
DXID-attrib $-1 -1 $-1 $-1 $125 @10 ASM ENTITY @36 2f1e72ec-ca98-4b39-b5e4-86f62faf8a7c #
vertex $-1 -1 $-1 $125 $203 #
straight-curve $-1 -1 $-1 0 400.0000000000001137 -79.99999999999997158 0 -10 -7.894919286223335749e-15 I I #
coedge $-1 -1 $-1 $187 $159 $161 $202 forward $131 $-1 #
DXID-attrib $-1 -1 $-1 $-1 $134 @10 ASM ENTITY @36 7d05d5a3-de7c-423d-934c-e33fb608a60d #
face $204 -1 $-1 $154 $205 $5 $-1 $206 reversed single #
loop $-1 -1 $-1 $-1 $207 $134 #
cone-surface $-1 -1 $-1 500 12.5 42.49999999999989342 -1 0 0 0 12.5 0 1 I I 0 -1 12.5 forward I I I I #
coedge $-1 -1 $-1 $208 $209 $172 $210 forward $135 $-1 #
coedge $-1 -1 $-1 $184 $137 $138 $175 reversed $99 $-1 #
coedge $-1 -1 $-1 $137 $184 $170 $210 reversed $99 $-1 #
coedge $-1 -1 $-1 $211 $140 $137 $174 forward $113 $-1 #
edge $-1 -1 $-1 $178 0 $212 1.570796326794895892 $173 $213 forward @7 unknown #
edge $-1 -1 $-1 $176 -40 $178 0 $138 $214 forward @7 tangent #
vertex $-1 -1 $-1 $139 $215 #
straight-curve $-1 -1 $-1 0 350 20 0 6.459479416000912932e-15 -10 I I #
vertex $-1 -1 $-1 $175 $216 #
straight-curve $-1 -1 $-1 500 350.0000000000001137 -79.99999999999998579 0 -6.459479416000912932e-15 10 I I #
point $-1 -1 $-1 500 350.0000000000000568 -58.99999999999997158 #
ellipse-curve $-1 -1 $-1 500 349.0000000000000568 -58.99999999999997158 1 0 0 0 1.000000000000014211 0 1 I I #
point $-1 -1 $-1 500 349.0000000000000568 -59.99999999999996447 #
coedge $-1 -1 $-1 $148 $217 $208 $218 forward $60 $-1 #
coedge $-1 -1 $-1 $172 $171 $148 $185 reversed $99 $-1 #
edge $-1 -1 $-1 $219 -1.570796326794895892 $176 0 $148 $220 forward @7 unknown #
coedge $-1 -1 $-1 $152 $221 $222 $223 forward $113 $-1 #
coedge $-1 -1 $-1 $198 $165 $152 $188 forward $131 $-1 #
edge $224 -1 $-1 $190 -19.99999999999999645 $225 -0 $152 $226 forward @7 unknown #
DXID-attrib $-1 -1 $-1 $-1 $153 @10 ASM ENTITY @36 25f270e6-e046-44e3-b0c3-830cdcc6bdbb #
vertex $-1 -1 $-1 $188 $227 #
straight-curve $-1 -1 $-1 500 400.0000000000001137 -79.99999999999997158 0 -10 -7.894919286223335749e-15 I I #
DXID-attrib $-1 -1 $-1 $-1 $154 @10 ASM ENTITY @36 5361b2e5-7588-4e04-84ca-931ac0f1e967 #
face $228 -1 $-1 $90 $229 $5 $-1 $230 forward single #
plane-surface $-1 -1 $-1 500 400.0000000000001137 -79.99999999999997158 1 0 0 0 -7.894919286223335749e-15 10 forward_v I I I I #
coedge $-1 -1 $-1 $217 $158 $231 $232 forward $60 $-1 #
coedge $-1 -1 $-1 $233 $234 $158 $197 forward $229 $-1 #
edge $235 -1 $-1 $236 39.99999999999999289 $200 45 $196 $237 forward @7 unknown #
coedge $-1 -1 $-1 $159 $187 $233 $238 forward $131 $-1 #
DXID-attrib $-1 -1 $-1 $-1 $160 @10 ASM ENTITY @36 cbc3e4f1-9d61-4213-b2bf-25f33e23b78e #
vertex $-1 -1 $-1 $197 $239 #
straight-curve $-1 -1 $-1 0 -49.99999999999985789 -80.00000000000031264 0 7.894919286223335749e-15 -10 I I #
edge $240 -1 $-1 $163 -50 $190 -0 $161 $241 forward @7 unknown #
point $-1 -1 $-1 0 -49.99999999999985789 -80.00000000000031264 #
DXID-attrib $-1 -1 $-1 $-1 $167 @10 ASM ENTITY @36 0e39e577-ebfd-4874-bc5c-39b20ead5027 #
loop $-1 -1 $-1 $-1 $242 $167 #
plane-surface $-1 -1 $-1 0 5.329070518200751394e-14 120 0 -1 5.921189464667494318e-16 0 -5.921189464667494712e-15 -10 forward_v I I I I #
coedge $-1 -1 $-1 $243 $244 $245 $246 reversed $168 $-1 #
coedge $-1 -1 $-1 $247 $170 $183 $218 reversed $135 $-1 #
coedge $-1 -1 $-1 $170 $247 $211 $248 reversed $135 $-1 #
edge $-1 -1 $-1 $212 0 $219 40 $170 $249 forward @7 tangent #
coedge $-1 -1 $-1 $245 $173 $209 $248 forward $113 $-1 #
vertex $-1 -1 $-1 $174 $250 #
ellipse-curve $-1 -1 $-1 500 337.5 17.49999999999999289 1 0 0 0 12.5 8.881784197001252323e-15 1 I I #
straight-curve $-1 -1 $-1 500 350 17.5 12.5 0 0 F -40 F 0 #
point $-1 -1 $-1 0 350 17.5 #
point $-1 -1 $-1 500 350 17.5 #
coedge $-1 -1 $-1 $183 $195 $251 $252 forward $60 $-1 #
edge $-1 -1 $-1 $253 -18.75 $219 13.75 $183 $254 forward @7 unknown #
vertex $-1 -1 $-1 $185 $255 #
ellipse-curve $-1 -1 $-1 0 337.5 17.49999999999999289 -1 0 0 0 12.5 8.881784197001252323e-15 1 I I #
coedge $-1 -1 $-1 $186 $245 $256 $257 forward $113 $-1 #
coedge $-1 -1 $-1 $234 $233 $186 $223 reversed $229 $-1 #
edge $258 -1 $-1 $259 39.99999999999999289 $225 45 $186 $260 forward @7 unknown #
DXID-attrib $-1 -1 $-1 $-1 $188 @10 ASM ENTITY @36 5002e4ae-90c7-4d66-bbe0-58bf50ee7ce9 #
vertex $-1 -1 $-1 $223 $261 #
straight-curve $-1 -1 $-1 500 -50 119.9999999999996447 0 -7.894919286223335749e-15 10 I I #
point $-1 -1 $-1 500 -49.99999999999985789 -80.00000000000031264 #
DXID-attrib $-1 -1 $-1 $-1 $193 @10 ASM ENTITY @36 e3106e9f-051e-436d-bd45-616184d1e8db #
loop $-1 -1 $-1 $-1 $234 $193 #
plane-surface $-1 -1 $-1 500 400 120 0 -7.89491928622333496e-16 1 -10 -0 -0 forward_v I I I I #
coedge $-1 -1 $-1 $262 $242 $195 $232 reversed $205 $-1 #
edge $-1 -1 $-1 $236 1.243449787580175483e-14 $263 7.750000000000023093 $195 $264 forward @7 unknown #
coedge $-1 -1 $-1 $222 $196 $198 $238 reversed $229 $-1 #
coedge $-1 -1 $-1 $196 $222 $262 $265 forward $229 $-1 #
DXID-attrib $-1 -1 $-1 $-1 $197 @10 ASM ENTITY @36 ed79d7ed-7ec4-4508-80b8-a80e61d5d633 #
vertex $-1 -1 $-1 $232 $266 #
straight-curve $-1 -1 $-1 0 400 120 0 -10 -7.894919286223335749e-15 I I #
edge $267 -1 $-1 $225 -50 $200 -0 $233 $268 forward @7 unknown #
point $-1 -1 $-1 0 -50 119.9999999999996447 #
DXID-attrib $-1 -1 $-1 $-1 $202 @10 ASM ENTITY @36 ee42ae9f-93b6-4d0e-9242-1c65e8120c4c #
straight-curve $-1 -1 $-1 500 -49.99999999999985789 -80.00000000000031264 10 0 0 I I #
coedge $-1 -1 $-1 $231 $256 $244 $269 reversed $205 $-1 #
coedge $-1 -1 $-1 $251 $207 $247 $270 reversed $168 $-1 #
coedge $-1 -1 $-1 $207 $251 $242 $269 forward $168 $-1 #
coedge $-1 -1 $-1 $221 $211 $207 $246 forward $113 $-1 #
edge $-1 -1 $-1 $271 1.570796326794896558 $272 3.141592653589793116 $245 $273 forward @7 unknown #
coedge $-1 -1 $-1 $209 $208 $243 $270 forward $135 $-1 #
edge $-1 -1 $-1 $212 -13.74999999999999289 $271 18.75000000000000711 $211 $274 forward @7 unknown #
straight-curve $-1 -1 $-1 500 337.5 29.99999999999998224 -12.5 0 0 F 0 F 40 #
point $-1 -1 $-1 500 337.5 29.99999999999998579 #
coedge $-1 -1 $-1 $244 $243 $217 $252 reversed $168 $-1 #
edge $-1 -1 $-1 $263 -3.141592653589793116 $253 -1.570796326794896558 $217 $275 forward @7 unknown #
vertex $-1 -1 $-1 $218 $276 #
straight-curve $-1 -1 $-1 0 200 29.99999999999993605 0 10 2.4424906541753436e-15 I I #
point $-1 -1 $-1 0 337.5 29.99999999999998579 #
coedge $-1 -1 $-1 $242 $262 $221 $257 reversed $205 $-1 #
edge $-1 -1 $-1 $272 2.249999999999975575 $259 9.999999999999985789 $221 $277 forward @7 unknown #
DXID-attrib $-1 -1 $-1 $-1 $223 @10 ASM ENTITY @36 b120494f-a8e3-4e83-a8c2-7767f0212491 #
vertex $-1 -1 $-1 $265 $278 #
straight-curve $-1 -1 $-1 500 400 120 0 -10 -7.894919286223335749e-15 I I #
point $-1 -1 $-1 500 -50 119.9999999999996447 #
coedge $-1 -1 $-1 $256 $231 $234 $265 reversed $205 $-1 #
vertex $-1 -1 $-1 $252 $279 #
straight-curve $-1 -1 $-1 0 7.105427357601001859e-14 120.0000000000001279 0 -5.921189464667494712e-15 -10 I I #
edge $-1 -1 $-1 $259 -25 $236 25 $234 $280 forward @7 unknown #
point $-1 -1 $-1 0 5.329070518200751394e-14 120 #
DXID-attrib $-1 -1 $-1 $-1 $238 @10 ASM ENTITY @36 41a9a838-7e64-4f65-acf3-7000a9f17e33 #
straight-curve $-1 -1 $-1 0 -50 119.9999999999996447 -10 -0 -0 I I #
edge $-1 -1 $-1 $263 -50 $272 0 $242 $281 forward @7 tangent #
edge $-1 -1 $-1 $253 -50 $271 0 $247 $282 forward @7 tangent #
vertex $-1 -1 $-1 $270 $283 #
vertex $-1 -1 $-1 $246 $284 #
ellipse-curve $-1 -1 $-1 500 12.5 42.49999999999989342 -1 -0 -0 0 12.5 0 1 I I #
straight-curve $-1 -1 $-1 500 200.0000000000000568 29.99999999999995026 0 -10 -2.4424906541753436e-15 I I #
ellipse-curve $-1 -1 $-1 0 12.5 42.49999999999989342 1 0 0 0 12.5 0 1 I I #
point $-1 -1 $-1 0 12.5 29.99999999999989342 #
straight-curve $-1 -1 $-1 500 0 20.00000000000013856 0 5.921189464667494712e-15 10 I I #
point $-1 -1 $-1 500 7.105427357601001859e-14 120 #
point $-1 -1 $-1 0 0 42.49999999999989342 #
straight-curve $-1 -1 $-1 250 7.105427357600975353e-14 119.9999999999996874 -10 0 0 I I #
straight-curve $-1 -1 $-1 500 8.881784197001252323e-15 42.49999999999990052 10 0 0 I I #
straight-curve $-1 -1 $-1 500 12.50000000000000355 29.99999999999990052 10 0 0 I I #
point $-1 -1 $-1 500 12.5 29.99999999999989342 #
point $-1 -1 $-1 500 0 42.49999999999989342 #
End-of-ACIS-data 