700 0 1 0           
30 Autodesk Translation Framework 20 ASM 230.5.0.65535 NT 24 Fri Feb 21 23:33:23 2025 
1 9.999999999999999547e-07 1.000000000000000036e-10 
body $1 -1 $-1 $2 $-1 $3 #
rgb_color-st-attrib $-1 -1 $4 $-1 $0 0.9960784313725490335 0.9960784313725490335 1 #
lump $-1 -1 $-1 $-1 $5 $0 #
transform $-1 -1 1 0 0 0 1 0 0 0 1 0 0 0 1 no_rotate no_reflect no_shear #
DXID-attrib $-1 -1 $-1 $1 $0 @10 ASM ENTITY @94 MOLD.IPT|:|37F758FBBEDE245C6C7A02A1E41B9FF6AED264B2|:|DA4B9237BACCCDF19C0760CAB7AEC4A8359010B0 #
shell $-1 -1 $-1 $-1 $-1 $6 $-1 $2 #
face $7 -1 $-1 $8 $9 $5 $-1 $10 forward single #
DXID-attrib $-1 -1 $-1 $-1 $6 @10 ASM ENTITY @36 c46e5a56-ee87-45cb-93e3-43bd372c2897 #
face $11 -1 $-1 $12 $13 $5 $-1 $14 forward single #
loop $-1 -1 $-1 $-1 $15 $6 #
cone-surface $-1 -1 $-1 500 336.0000000000001137 -60.99999999999997158 1 -1.051814540294682338e-32 1.776356839400250502e-17 0 0 0.9999999999999964473 1 I I 0 1 0.9999999999999964473 reversed I I F 0 F 1.570796326794896558 #
DXID-attrib $-1 -1 $-1 $-1 $8 @10 ASM ENTITY @36 ae2561a5-623d-4819-b6fc-3e7008471cf5 #
face $16 -1 $-1 $17 $18 $5 $-1 $19 forward single #
loop $-1 -1 $-1 $-1 $20 $8 #
plane-surface $-1 -1 $-1 500 200.0000000000000284 74.99999999999994316 1 0 0 0 0 -10 forward_v I I I I #
coedge $-1 -1 $-1 $21 $22 $23 $24 forward $9 $-1 #
DXID-attrib $-1 -1 $-1 $-1 $12 @10 ASM ENTITY @36 9e8f1233-4828-4dbb-929f-f1b3381ee44b #
face $25 -1 $-1 $26 $27 $5 $-1 $28 forward single #
loop $-1 -1 $-1 $-1 $29 $12 #
plane-surface $-1 -1 $-1 250 335.0000000000000568 -69.99999999999997158 0 -1 -5.92118946466750122e-16 0 5.921189464667501023e-15 -10 forward_v I I I I #
coedge $-1 -1 $-1 $30 $31 $32 $33 reversed $13 $-1 #
coedge $-1 -1 $-1 $32 $15 $29 $34 forward $9 $-1 #
coedge $-1 -1 $-1 $15 $32 $35 $36 forward $9 $-1 #
coedge $-1 -1 $-1 $37 $38 $15 $24 reversed $39 $-1 #
edge $-1 -1 $-1 $40 0 $41 1.570796326794896558 $23 $42 forward @7 unknown #
DXID-attrib $-1 -1 $-1 $-1 $17 @10 ASM ENTITY @36 66a63c7a-81f4-4bd2-849f-5ea659f83b99 #
face $43 -1 $-1 $44 $45 $5 $-1 $46 forward single #
loop $-1 -1 $-1 $-1 $47 $17 #
cone-surface $-1 -1 $-1 500 349.0000000000000568 -58.99999999999997158 -1 1.147434043957835763e-32 -1.776356839400250502e-17 0 1.000000000000014211 0 1 I I -0 -1 1.000000000000014211 forward I I F 0 F 1.570796326794896558 #
coedge $-1 -1 $-1 $48 $49 $21 $34 reversed $18 $-1 #
coedge $-1 -1 $-1 $50 $20 $49 $51 reversed $13 $-1 #
coedge $-1 -1 $-1 $20 $52 $53 $54 forward $13 $-1 #
coedge $-1 -1 $-1 $22 $21 $20 $33 forward $9 $-1 #
edge $-1 -1 $-1 $55 -1.570796326794896558 $56 0 $20 $57 forward @7 unknown #
edge $-1 -1 $-1 $41 -500 $55 7.473591809732356052e-46 $29 $58 forward @7 tangent #
coedge $-1 -1 $-1 $53 $59 $22 $36 reversed $60 $-1 #
edge $-1 -1 $-1 $56 0 $40 500 $35 $61 forward @7 tangent #
coedge $-1 -1 $-1 $62 $23 $59 $63 reversed $39 $-1 #
coedge $-1 -1 $-1 $23 $64 $48 $65 reversed $39 $-1 #
loop $-1 -1 $-1 $-1 $23 $66 #
vertex $-1 -1 $-1 $24 $67 #
vertex $-1 -1 $-1 $24 $68 #
ellipse-curve $-1 -1 $-1 0 336.0000000000001137 -60.99999999999997868 1 0 0 0 0 0.9999999999999964473 1 I I #
DXID-attrib $-1 -1 $-1 $-1 $26 @10 ASM ENTITY @36 ba58f482-aa5d-4eed-894b-f93b3120a290 #
face $69 -1 $-1 $70 $60 $5 $-1 $71 forward single #
loop $-1 -1 $-1 $-1 $72 $26 #
plane-surface $-1 -1 $-1 500 350.0000000000000568 -79.99999999999997158 -0 -1 -6.459479416000912932e-16 0 -6.459479416000912932e-15 10 forward_v I I I I #
coedge $-1 -1 $-1 $73 $74 $62 $75 reversed $27 $-1 #
coedge $-1 -1 $-1 $76 $29 $38 $65 forward $18 $-1 #
coedge $-1 -1 $-1 $29 $76 $30 $51 forward $18 $-1 #
coedge $-1 -1 $-1 $77 $30 $78 $79 forward $13 $-1 #
edge $80 -1 $-1 $81 0 $55 1.900000000000000355 $30 $82 forward @7 unknown #
coedge $-1 -1 $-1 $31 $83 $84 $85 reversed $13 $-1 #
coedge $-1 -1 $-1 $86 $35 $31 $54 reversed $60 $-1 #
edge $87 -1 $-1 $88 0.1000000000000014211 $56 1.399999999999998579 $53 $89 forward @7 unknown #
vertex $-1 -1 $-1 $34 $90 #
vertex $-1 -1 $-1 $33 $91 #
ellipse-curve $-1 -1 $-1 500 336.0000000000001137 -60.99999999999997158 -1 -0 -0 0 0 0.9999999999999964473 1 I I #
straight-curve $-1 -1 $-1 500 335.0000000000000568 -60.99999999999997158 1 -1.051814540294682338e-32 1.776356839400250502e-17 F -500 F 7.473591809732356052e-46 #
coedge $-1 -1 $-1 $35 $86 $37 $63 forward $60 $-1 #
loop $-1 -1 $-1 $-1 $35 $44 #
straight-curve $-1 -1 $-1 500 336.0000000000001137 -59.99999999999997158 -1 1.051814540294682338e-32 -1.776356839400250502e-17 F 0 F 500 #
coedge $-1 -1 $-1 $92 $37 $47 $75 forward $39 $-1 #
edge $93 -1 $-1 $94 0.1000000000000014211 $40 1.399999999999998579 $59 $95 forward @7 unknown #
coedge $-1 -1 $-1 $38 $96 $97 $98 forward $39 $-1 #
edge $99 -1 $-1 $41 0.09999999999999964473 $100 2 $38 $101 forward @7 unknown #
face $102 -1 $-1 $103 $39 $5 $-1 $104 reversed single #
point $-1 -1 $-1 -3.552713678800501127e-16 336.0000000000001137 -59.99999999999998579 #
point $-1 -1 $-1 -3.375077994860476415e-16 335 -60.99999999999997868 #
DXID-attrib $-1 -1 $-1 $-1 $44 @10 ASM ENTITY @36 44861f1e-94bc-4298-a019-ab7448bd1eb2 #
face $105 -1 $-1 $106 $107 $5 $-1 $108 forward single #
plane-surface $-1 -1 $-1 500 350.0000000000000568 -59.99999999999996447 -1.776356839400250502e-17 -5.92118946466750122e-16 1 -10 1.147434043957835735e-31 -1.776356839400250563e-16 forward_v I I I I #
coedge $-1 -1 $-1 $109 $110 $74 $111 reversed $45 $-1 #
coedge $-1 -1 $-1 $84 $47 $86 $112 forward $27 $-1 #
coedge $-1 -1 $-1 $47 $84 $72 $111 forward $27 $-1 #
edge $-1 -1 $-1 $94 -1.570796326794896558 $113 -8.881784197001126106e-15 $47 $114 reversed @7 unknown #
coedge $-1 -1 $-1 $49 $48 $115 $116 forward $18 $-1 #
coedge $-1 -1 $-1 $117 $50 $118 $119 forward $13 $-1 #
coedge $-1 -1 $-1 $115 $120 $50 $79 reversed $121 $-1 #
edge $122 -1 $-1 $81 -1.5 $123 5 $50 $124 forward @7 unknown #
DXID-attrib $-1 -1 $-1 $-1 $51 @10 ASM ENTITY @36 f1dff8bb-c12b-4706-94e4-260fea090396 #
vertex $-1 -1 $-1 $51 $125 #
straight-curve $-1 -1 $-1 500 335 -79.99999999999997158 -1.776356839400250563e-16 -6.459479416000912932e-15 10 I I #
coedge $-1 -1 $-1 $52 $126 $109 $127 forward $13 $-1 #
coedge $-1 -1 $-1 $74 $73 $52 $85 forward $27 $-1 #
edge $-1 -1 $-1 $88 -1.570796326794896558 $128 0 $84 $129 forward @7 unknown #
coedge $-1 -1 $-1 $59 $53 $73 $112 reversed $60 $-1 #
DXID-attrib $-1 -1 $-1 $-1 $54 @10 ASM ENTITY @36 c2690583-ab61-4f05-a79b-4a9ed263cd21 #
vertex $-1 -1 $-1 $85 $130 #
straight-curve $-1 -1 $-1 500 350.0000000000000568 -59.99999999999996447 0 -10 -5.921189464667501023e-15 I I #
point $-1 -1 $-1 500 335 -60.99999999999997158 #
point $-1 -1 $-1 500 336.0000000000001137 -59.99999999999997158 #
coedge $-1 -1 $-1 $131 $62 $110 $132 forward $39 $-1 #
DXID-attrib $-1 -1 $-1 $-1 $63 @10 ASM ENTITY @36 1089c0f6-3b86-492e-8164-b469c6231a16 #
vertex $-1 -1 $-1 $75 $133 #
straight-curve $-1 -1 $-1 -3.552713678800501127e-16 350.0000000000000568 -59.99999999999997158 0 -10 -5.921189464667501023e-15 I I #
coedge $-1 -1 $-1 $64 $134 $135 $136 forward $39 $-1 #
coedge $-1 -1 $-1 $120 $115 $64 $98 reversed $121 $-1 #
edge $137 -1 $-1 $138 -5 $100 1.5 $97 $139 forward @7 unknown #
DXID-attrib $-1 -1 $-1 $-1 $65 @10 ASM ENTITY @36 562f9921-a287-4180-8752-61e2c2840e58 #
vertex $-1 -1 $-1 $65 $140 #
straight-curve $-1 -1 $-1 -3.552713678800501127e-16 335 -59.99999999999998579 1.776356839400250563e-16 6.459479416000912932e-15 -10 I I #
DXID-attrib $-1 -1 $-1 $-1 $66 @10 ASM ENTITY @36 85622106-f696-4662-ab17-4e8487bd56e9 #
face $141 -1 $-1 $142 $143 $5 $-1 $144 forward single #
plane-surface $-1 -1 $-1 0 200.0000000000000284 74.99999999999994316 1 0 0 0 0 -10 forward_v I I I I #
DXID-attrib $-1 -1 $-1 $-1 $70 @10 ASM ENTITY @36 fef104b2-1086-4c5c-8aa5-bbc64bac2ccb #
face $145 -1 $-1 $146 $147 $5 $-1 $148 reversed single #
loop $-1 -1 $-1 $-1 $149 $70 #
cone-surface $-1 -1 $-1 500 337.5 17.49999999999999289 1 0 0 0 12.5 8.881784197001252323e-15 1 I I -0 -1 12.5 forward I I F 0 F 1.570796326794895892 #
coedge $-1 -1 $-1 $150 $72 $83 $127 reversed $45 $-1 #
coedge $-1 -1 $-1 $72 $150 $92 $132 reversed $45 $-1 #
edge $-1 -1 $-1 $128 0 $113 500 $72 $151 forward @7 tangent #
edge $-1 -1 $-1 $94 -500 $88 0 $86 $152 forward @7 tangent #
vertex $-1 -1 $-1 $75 $153 #
ellipse-curve $-1 -1 $-1 0 349.0000000000000568 -58.99999999999997868 -1 -0 -0 0 1.000000000000014211 0 1 I I #
coedge $-1 -1 $-1 $97 $78 $76 $116 reversed $121 $-1 #
edge $154 -1 $-1 $100 0 $81 50 $115 $155 forward @7 unknown #
coedge $-1 -1 $-1 $156 $77 $157 $158 forward $13 $-1 #
coedge $-1 -1 $-1 $159 $160 $77 $119 reversed $143 $-1 #
edge $161 -1 $-1 $123 0 $162 19.99999999999999645 $77 $163 forward @7 unknown #
coedge $-1 -1 $-1 $78 $97 $159 $164 reversed $121 $-1 #
loop $-1 -1 $-1 $-1 $78 $165 #
DXID-attrib $-1 -1 $-1 $-1 $79 @10 ASM ENTITY @36 efb38eb6-fe9e-4435-86cd-43909a8675d6 #
vertex $-1 -1 $-1 $79 $166 #
straight-curve $-1 -1 $-1 500 350.0000000000000568 -79.99999999999997158 0 10 0 F -1.5 F 5 #
point $-1 -1 $-1 500 335.0000000000000568 -79.99999999999997158 #
coedge $-1 -1 $-1 $83 $167 $149 $168 forward $13 $-1 #
edge $169 -1 $-1 $170 1.25 $128 8.899999999999996803 $83 $171 forward @7 unknown #
vertex $-1 -1 $-1 $127 $172 #
ellipse-curve $-1 -1 $-1 500 349.0000000000000568 -58.99999999999997158 1 0 0 0 1.000000000000014211 0 1 I I #
point $-1 -1 $-1 500 349.0000000000000568 -59.99999999999996447 #
coedge $-1 -1 $-1 $173 $92 $174 $175 reversed $39 $-1 #
edge $176 -1 $-1 $113 -8.899999999999998579 $177 -1.25 $110 $178 forward @7 unknown #
point $-1 -1 $-1 -3.552713678800501127e-16 349.0000000000000568 -59.99999999999997158 #
coedge $-1 -1 $-1 $96 $179 $180 $181 reversed $39 $-1 #
coedge $-1 -1 $-1 $160 $159 $96 $136 reversed $143 $-1 #
edge $182 -1 $-1 $183 -19.99999999999999645 $138 -0 $135 $184 forward @7 unknown #
DXID-attrib $-1 -1 $-1 $-1 $98 @10 ASM ENTITY @36 1f0f823b-49e8-4f0e-970e-78403f16de8e #
vertex $-1 -1 $-1 $98 $185 #
straight-curve $-1 -1 $-1 0 350.0000000000000568 -79.99999999999997158 0 -10 0 I I #
point $-1 -1 $-1 0 335.0000000000000568 -79.99999999999998579 #
DXID-attrib $-1 -1 $-1 $-1 $103 @10 ASM ENTITY @36 759d79fe-7782-45ee-9722-34d50b237add #
face $186 -1 $-1 $187 $188 $5 $-1 $189 forward single #
loop $-1 -1 $-1 $-1 $135 $103 #
plane-surface $-1 -1 $-1 0 400.0000000000000568 30 0 1 7.89491928622333496e-16 0 -7.894919286223335749e-15 10 forward_v I I I I #
DXID-attrib $-1 -1 $-1 $-1 $106 @10 ASM ENTITY @36 de774e2f-e2cc-40c7-bac1-5539a9c98459 #
face $190 -1 $-1 $191 $192 $5 $-1 $193 reversed single #
loop $-1 -1 $-1 $-1 $194 $106 #
cone-surface $-1 -1 $-1 236 214.0000000000000568 29.99999999999995737 0 0 1 -1.000000000000014211 0 0 1 I I 0 1 1.000000000000014211 forward I I I I #
coedge $-1 -1 $-1 $195 $196 $126 $168 reversed $107 $-1 #
coedge $-1 -1 $-1 $110 $109 $196 $197 reversed $45 $-1 #
straight-curve $-1 -1 $-1 500 350.0000000000000568 -58.99999999999997158 -1 1.147434043957835763e-32 -1.776356839400250502e-17 F 0 F 500 #
straight-curve $-1 -1 $-1 500 349.0000000000000568 -59.99999999999996447 1 -1.147434043957835763e-32 1.776356839400250502e-17 F -500 F 0 #
point $-1 -1 $-1 0 350.0000000000000568 -58.99999999999998579 #
DXID-attrib $-1 -1 $-1 $-1 $116 @10 ASM ENTITY @36 4dcb9ea9-5bc1-43a9-90dc-b8c7d177ee51 #
straight-curve $-1 -1 $-1 0 335 -79.99999999999998579 10 -1.147434043957835735e-31 1.776356839400250563e-16 I I #
coedge $-1 -1 $-1 $198 $117 $199 $200 forward $13 $-1 #
coedge $-1 -1 $-1 $201 $202 $117 $158 reversed $203 $-1 #
edge $204 -1 $-1 $162 0 $205 39.99999999999999289 $157 $206 forward @7 unknown #
coedge $-1 -1 $-1 $135 $118 $120 $164 forward $143 $-1 #
coedge $-1 -1 $-1 $118 $135 $201 $207 forward $143 $-1 #
DXID-attrib $-1 -1 $-1 $-1 $119 @10 ASM ENTITY @36 be080ca6-165d-422c-8dbe-9a640804c60f #
vertex $-1 -1 $-1 $119 $208 #
straight-curve $-1 -1 $-1 500 400.0000000000000568 -79.99999999999997158 0 0 10 F 0 F 19.99999999999999645 #
edge $209 -1 $-1 $123 0 $138 50 $159 $210 forward @7 unknown #
face $211 -1 $-1 $212 $121 $5 $-1 $213 forward single #
point $-1 -1 $-1 500 400.0000000000000568 -79.99999999999997158 #
coedge $-1 -1 $-1 $126 $198 $214 $215 forward $13 $-1 #
edge $-1 -1 $-1 $216 -1.570796326794895892 $170 -0 $149 $217 reversed @7 unknown #
DXID-attrib $-1 -1 $-1 $-1 $127 @10 ASM ENTITY @36 d48e3262-9641-4068-ab13-b06774612fbf #
vertex $-1 -1 $-1 $168 $218 #
straight-curve $-1 -1 $-1 500 350 30 0 6.459479416000912932e-15 -10 F 8.881784197001252323e-16 F 10.99999999999999645 #
point $-1 -1 $-1 500 350.0000000000000568 -58.99999999999997158 #
coedge $-1 -1 $-1 $219 $131 $220 $221 reversed $39 $-1 #
coedge $-1 -1 $-1 $196 $195 $131 $175 forward $107 $-1 #
edge $-1 -1 $-1 $222 -1.570796326794895892 $177 0 $174 $223 forward @7 unknown #
DXID-attrib $-1 -1 $-1 $-1 $132 @10 ASM ENTITY @36 bfb84fbf-8e0b-42ea-959b-78630e776bc3 #
vertex $-1 -1 $-1 $197 $224 #
straight-curve $-1 -1 $-1 0 350 30 0 -6.459479416000912932e-15 10 I I #
coedge $-1 -1 $-1 $134 $219 $225 $226 reversed $39 $-1 #
coedge $-1 -1 $-1 $202 $201 $134 $181 forward $203 $-1 #
edge $227 -1 $-1 $183 0 $228 39.99999999999999289 $180 $229 forward @7 unknown #
DXID-attrib $-1 -1 $-1 $-1 $136 @10 ASM ENTITY @36 bbebc06f-945f-49ff-aafd-bedc81c7c6d3 #
vertex $-1 -1 $-1 $181 $230 #
straight-curve $-1 -1 $-1 0 400.0000000000000568 -79.99999999999997158 0 0 -10 I I #
point $-1 -1 $-1 0 400.0000000000000568 -79.99999999999997158 #
DXID-attrib $-1 -1 $-1 $-1 $142 @10 ASM ENTITY @36 80f24bbd-3f27-4eaa-8d35-684baeacfd62 #
face $231 -1 $-1 $-1 $232 $5 $-1 $233 forward single #
loop $-1 -1 $-1 $-1 $234 $142 #
plane-surface $-1 -1 $-1 0 5.329070518200751394e-14 120 0 -1 5.921189464667494318e-16 0 -5.921189464667494712e-15 -10 forward_v I I I I #
DXID-attrib $-1 -1 $-1 $-1 $146 @10 ASM ENTITY @36 bab3c60a-a09b-4f3c-acec-69870e3b3ca9 #
face $235 -1 $-1 $236 $237 $5 $-1 $238 reversed single #
loop $-1 -1 $-1 $-1 $239 $146 #
plane-surface $-1 -1 $-1 264 215.0000000000000568 29.99999999999995737 0 1 0 -10 -0 -0 forward_v I I I I #
coedge $-1 -1 $-1 $240 $241 $242 $243 reversed $147 $-1 #
coedge $-1 -1 $-1 $174 $149 $244 $245 forward $107 $-1 #
coedge $-1 -1 $-1 $149 $174 $150 $197 forward $107 $-1 #
edge $-1 -1 $-1 $177 -40 $170 0 $150 $246 forward @7 tangent #
coedge $-1 -1 $-1 $167 $156 $247 $248 forward $13 $-1 #
coedge $-1 -1 $-1 $249 $234 $156 $200 reversed $188 $-1 #
edge $250 -1 $-1 $205 0 $251 7.750000000000010658 $199 $252 forward @7 unknown #
coedge $-1 -1 $-1 $180 $157 $160 $207 reversed $203 $-1 #
coedge $-1 -1 $-1 $157 $180 $249 $253 forward $203 $-1 #
loop $-1 -1 $-1 $-1 $180 $187 #
DXID-attrib $-1 -1 $-1 $-1 $158 @10 ASM ENTITY @36 3b6236f5-1370-4c5c-9c97-dc83fb7cc349 #
vertex $-1 -1 $-1 $158 $254 #
straight-curve $-1 -1 $-1 500 400 120 0 -10 0 I I #
edge $255 -1 $-1 $183 0 $162 50 $201 $256 forward @7 unknown #
point $-1 -1 $-1 500 400 120 #
DXID-attrib $-1 -1 $-1 $-1 $164 @10 ASM ENTITY @36 8c2e26c4-f5b6-4e28-a40b-7ad7828c4c58 #
straight-curve $-1 -1 $-1 500 400.0000000000000568 -79.99999999999997158 -10 0 0 I I #
DXID-attrib $-1 -1 $-1 $-1 $165 @10 ASM ENTITY @36 1e50a5e5-cfbb-45d3-8e7f-bdb02cc57e60 #
face $257 -1 $-1 $66 $258 $5 $-1 $259 reversed single #
plane-surface $-1 -1 $-1 500 400.0000000000000568 -79.99999999999997158 -0 -0 -1 0 -10 0 forward_v I I I I #
coedge $-1 -1 $-1 $260 $244 $167 $215 reversed $261 $-1 #
edge $262 -1 $-1 $263 1.25 $216 33.75 $214 $264 forward @7 unknown #
vertex $-1 -1 $-1 $215 $265 #
ellipse-curve $-1 -1 $-1 500 337.5 17.49999999999999289 1 0 0 0 12.5 8.881784197001252323e-15 1 I I #
point $-1 -1 $-1 500 350 17.5 #
coedge $-1 -1 $-1 $179 $173 $266 $267 forward $39 $-1 #
coedge $-1 -1 $-1 $244 $260 $173 $221 forward $261 $-1 #
edge $268 -1 $-1 $269 1.25 $222 33.75 $220 $270 forward @7 unknown #
vertex $-1 -1 $-1 $245 $271 #
ellipse-curve $-1 -1 $-1 0 337.5 17.49999999999999289 -1 -0 -0 0 12.5 8.881784197001252323e-15 1 I I #
point $-1 -1 $-1 0 350 17.5 #
coedge $-1 -1 $-1 $234 $249 $179 $226 forward $188 $-1 #
edge $272 -1 $-1 $228 0 $273 7.750000000000010658 $225 $274 forward @7 unknown #
DXID-attrib $-1 -1 $-1 $-1 $181 @10 ASM ENTITY @36 8cfc309c-636e-430c-818f-b3c4327e3818 #
vertex $-1 -1 $-1 $226 $275 #
straight-curve $-1 -1 $-1 0 400 120 0 -10 0 F 0 F 39.99999999999999289 #
point $-1 -1 $-1 0 400 120 #
DXID-attrib $-1 -1 $-1 $-1 $187 @10 ASM ENTITY @36 b42478da-d04b-417c-b8fe-78e6151c5547 #
loop $-1 -1 $-1 $203 $276 $187 #
plane-surface $-1 -1 $-1 0 400 120 0 0 1 0 -10 0 forward_v I I I I #
coedge $-1 -1 $-1 $199 $225 $277 $278 forward $188 $-1 #
DXID-attrib $-1 -1 $-1 $-1 $191 @10 ASM ENTITY @36 5daf5d9e-86a0-4371-bea4-cc7409f50a07 #
face $279 -1 $-1 $280 $281 $5 $-1 $282 forward single #
loop $-1 -1 $-1 $-1 $283 $191 #
cone-surface $-1 -1 $-1 264 214.0000000000000568 29.99999999999995737 0 0 1 0 1.000000000000014211 0 1 I I 0 1 1.000000000000014211 forward I I I I #
coedge $-1 -1 $-1 $284 $285 $286 $287 reversed $192 $-1 #
coedge $-1 -1 $-1 $288 $194 $285 $289 forward $147 $-1 #
coedge $-1 -1 $-1 $194 $288 $290 $291 reversed $147 $-1 #
coedge $-1 -1 $-1 $292 $286 $194 $243 forward $293 $-1 #
edge $-1 -1 $-1 $294 -1.570796326794896558 $295 -1.301620493614650421e-29 $242 $296 forward @7 unknown #
coedge $-1 -1 $-1 $214 $220 $195 $245 reversed $261 $-1 #
edge $-1 -1 $-1 $216 0 $222 40 $244 $297 forward @7 tangent #
straight-curve $-1 -1 $-1 500 350 17.5 12.5 0 0 F -40 F 0 #
coedge $-1 -1 $-1 $277 $298 $198 $248 reversed $258 $-1 #
edge $-1 -1 $-1 $251 -3.141592653589793116 $263 -1.570796326794896558 $198 $299 forward @7 unknown #
coedge $-1 -1 $-1 $225 $199 $202 $253 reversed $188 $-1 #
DXID-attrib $-1 -1 $-1 $-1 $200 @10 ASM ENTITY @36 5ecff29a-f2c1-4c0c-adf5-88e68c44802a #
vertex $-1 -1 $-1 $200 $300 #
straight-curve $-1 -1 $-1 500 5.329070518200751394e-14 120 0 -5.921189464667494712e-15 -10 I I #
edge $301 -1 $-1 $228 0 $205 50 $202 $302 forward @7 unknown #
point $-1 -1 $-1 500 7.105427357601001859e-14 120 #
DXID-attrib $-1 -1 $-1 $-1 $207 @10 ASM ENTITY @36 382b8916-28de-4d4a-8bd8-2e269007b70f #
straight-curve $-1 -1 $-1 0 400 120 10 0 0 I I #
DXID-attrib $-1 -1 $-1 $-1 $212 @10 ASM ENTITY @36 12702e30-75f3-4c01-bbee-b0e8044b58e0 #
loop $-1 -1 $-1 $-1 $247 $212 #
cone-surface $-1 -1 $-1 500 12.5 42.49999999999989342 -1 0 0 0 12.5 0 1 I I 0 -1 12.5 forward I I I I #
coedge $-1 -1 $-1 $220 $214 $298 $303 reversed $261 $-1 #
loop $-1 -1 $-1 $293 $244 $304 #
DXID-attrib $-1 -1 $-1 $-1 $215 @10 ASM ENTITY @36 37a890c6-1fab-4013-a80e-a44979ccb547 #
vertex $-1 -1 $-1 $248 $305 #
straight-curve $-1 -1 $-1 500 0 29.99999999999990052 0 10 2.4424906541753436e-15 I I #
point $-1 -1 $-1 500 337.5 29.99999999999998579 #
coedge $-1 -1 $-1 $298 $277 $219 $267 reversed $258 $-1 #
edge $-1 -1 $-1 $269 1.570796326794896558 $273 3.141592653589793116 $219 $306 forward @7 unknown #
DXID-attrib $-1 -1 $-1 $-1 $221 @10 ASM ENTITY @36 c724f026-c13d-4d53-8590-77a46d730afd #
vertex $-1 -1 $-1 $303 $307 #
straight-curve $-1 -1 $-1 0 0 29.99999999999990052 0 10 2.4424906541753436e-15 F 0 F 40.00000000000000711 #
point $-1 -1 $-1 0 337.5 29.99999999999998579 #
DXID-attrib $-1 -1 $-1 $-1 $226 @10 ASM ENTITY @36 d409900b-65d9-497c-a1a3-e51de22166a8 #
vertex $-1 -1 $-1 $278 $308 #
straight-curve $-1 -1 $-1 0 5.329070518200751394e-14 120 0 -5.921189464667494712e-15 -10 F 0 F 9.000000000000010658 #
point $-1 -1 $-1 0 5.329070518200751394e-14 120 #
coedge $-1 -1 $-1 $309 $310 $311 $312 forward $232 $-1 #
coedge $-1 -1 $-1 $266 $247 $234 $278 reversed $258 $-1 #
edge $-1 -1 $-1 $273 -50 $251 0 $234 $313 forward @7 tangent #
DXID-attrib $-1 -1 $-1 $-1 $236 @10 ASM ENTITY @36 9a0b086e-a9a2-4a74-8adb-f7e9f783b556 #
face $314 -1 $-1 $315 $316 $5 $-1 $317 reversed single #
loop $-1 -1 $-1 $-1 $318 $236 #
plane-surface $-1 -1 $-1 250 190.0000000000000568 44.99999999999995737 0 2.4424906541753436e-16 -1 -10 0 0 forward_v I I I I #
coedge $-1 -1 $-1 $319 $320 $321 $322 reversed $237 $-1 #
coedge $-1 -1 $-1 $323 $239 $320 $324 forward $192 $-1 #
coedge $-1 -1 $-1 $239 $323 $240 $289 reversed $192 $-1 #
coedge $-1 -1 $-1 $242 $321 $239 $287 forward $293 $-1 #
edge $-1 -1 $-1 $325 -13.19999999999999929 $294 -10.40000000000000213 $286 $326 forward @7 unknown #
coedge $-1 -1 $-1 $241 $240 $327 $328 forward $147 $-1 #
edge $329 -1 $-1 $294 0 $330 1.500000000000000888 $285 $331 forward @7 tangent #
coedge $-1 -1 $-1 $332 $333 $241 $291 forward $334 $-1 #
edge $335 -1 $-1 $295 0 $336 1.500000000000000888 $241 $337 forward @7 tangent #
coedge $-1 -1 $-1 $338 $242 $333 $339 forward $293 $-1 #
loop $-1 -1 $-1 $-1 $340 $304 #
vertex $-1 -1 $-1 $243 $341 #
vertex $-1 -1 $-1 $243 $342 #
ellipse-curve $-1 -1 $-1 236 214.0000000000000568 29.99999999999990052 0 -2.4424906541753436e-16 1 -1.000000000000014211 0 0 1 I I #
straight-curve $-1 -1 $-1 500 337.5 29.99999999999998224 -12.5 0 0 F 0 F 40 #
coedge $-1 -1 $-1 $247 $266 $260 $303 forward $258 $-1 #
ellipse-curve $-1 -1 $-1 500 12.5 42.49999999999989342 1 0 0 0 12.5 0 1 I I #
point $-1 -1 $-1 500 0 42.49999999999989342 #
DXID-attrib $-1 -1 $-1 $-1 $253 @10 ASM ENTITY @36 b91d3f40-797b-4750-a039-76bc83b4683f #
straight-curve $-1 -1 $-1 0 5.329070518200751394e-14 120 10 0 0 I I #
edge $-1 -1 $-1 $269 -50 $263 0 $260 $343 forward @7 tangent #
face $344 -1 $-1 $345 $261 $5 $-1 $346 forward single #
point $-1 -1 $-1 500 12.5 29.99999999999989342 #
ellipse-curve $-1 -1 $-1 0 12.5 42.49999999999989342 -1 -0 -0 0 12.5 0 1 I I #
point $-1 -1 $-1 0 12.5 29.99999999999989342 #
point $-1 -1 $-1 0 0 42.49999999999989342 #
coedge $-1 -1 $-1 $347 $276 $348 $349 forward $232 $-1 #
coedge $-1 -1 $-1 $276 $350 $351 $352 forward $232 $-1 #
coedge $-1 -1 $-1 $353 $354 $276 $312 reversed $334 $-1 #
edge $-1 -1 $-1 $355 -11.69999999999999574 $356 -8.899999999999998579 $276 $357 forward @7 unknown #
straight-curve $-1 -1 $-1 500 8.881784197001252323e-15 42.49999999999990052 10 0 0 I I #
DXID-attrib $-1 -1 $-1 $-1 $280 @10 ASM ENTITY @36 8a206336-f9e9-4064-ad03-0c52f511fbc4 #
face $358 -1 $-1 $304 $359 $5 $-1 $360 reversed single #
loop $-1 -1 $-1 $-1 $361 $280 #
cone-surface $-1 -1 $-1 264 194.0000000000000568 119.9999999999999858 0 0 -1 1.000000000000014211 0 0 1 I I 0 1 1.000000000000014211 forward I I I I #
coedge $-1 -1 $-1 $362 $363 $361 $364 reversed $281 $-1 #
coedge $-1 -1 $-1 $365 $283 $366 $367 forward $237 $-1 #
coedge $-1 -1 $-1 $283 $365 $284 $324 reversed $237 $-1 #
coedge $-1 -1 $-1 $286 $340 $283 $322 forward $293 $-1 #
edge $-1 -1 $-1 $368 -1.570796326794896558 $325 0 $321 $369 forward @7 unknown #
coedge $-1 -1 $-1 $285 $284 $370 $371 forward $192 $-1 #
edge $372 -1 $-1 $325 0 $373 1.500000000000000888 $320 $374 forward @7 tangent #
vertex $-1 -1 $-1 $287 $375 #
straight-curve $-1 -1 $-1 132 215.0000000000000568 29.99999999999995737 -10 0 0 I I #
coedge $-1 -1 $-1 $370 $376 $288 $328 reversed $281 $-1 #
edge $377 -1 $-1 $330 -1.570796326794896558 $336 -0 $288 $378 forward @7 unknown #
DXID-attrib $-1 -1 $-1 $-1 $289 @10 ASM ENTITY @36 9a28ac5a-9b93-4b34-90b9-dbb97ab1b8af #
vertex $-1 -1 $-1 $289 $379 #
straight-curve $-1 -1 $-1 236 215.0000000000000568 29.99999999999995737 0 0 10 I I #
coedge $-1 -1 $-1 $354 $290 $376 $380 forward $334 $-1 #
coedge $-1 -1 $-1 $290 $353 $292 $339 reversed $334 $-1 #
loop $-1 -1 $-1 $-1 $354 $381 #
DXID-attrib $-1 -1 $-1 $-1 $291 @10 ASM ENTITY @36 54f116e3-ce9f-4781-8ec2-45c8208a29e8 #
vertex $-1 -1 $-1 $328 $382 #
straight-curve $-1 -1 $-1 235 214.0000000000000568 29.99999999999995737 0 0 10 I I #
coedge $-1 -1 $-1 $383 $292 $384 $385 forward $293 $-1 #
edge $-1 -1 $-1 $295 -13.09999999999999964 $386 -8.300000000000002487 $292 $387 forward @7 unknown #
coedge $-1 -1 $-1 $321 $388 $389 $390 forward $293 $-1 #
point $-1 -1 $-1 236 215.0000000000000568 29.99999999999995737 #
point $-1 -1 $-1 235 214.0000000000000568 29.99999999999995737 #
straight-curve $-1 -1 $-1 500 12.50000000000000355 29.99999999999990052 10 0 0 I I #
DXID-attrib $-1 -1 $-1 $-1 $304 @10 ASM ENTITY @36 df52687f-6976-4c0f-8a09-9f5c9d8a6c1f #
face $391 -1 $-1 $392 $393 $5 $-1 $394 reversed single #
plane-surface $-1 -1 $-1 0 0 29.99999999999990052 0 2.4424906541753436e-16 -1 0 10 2.4424906541753436e-15 forward_v I I I I #
coedge $-1 -1 $-1 $395 $309 $396 $397 forward $232 $-1 #
coedge $-1 -1 $-1 $398 $399 $309 $349 reversed $400 $-1 #
edge $-1 -1 $-1 $356 -1.570796326794896558 $401 0 $309 $402 forward @7 unknown #
coedge $-1 -1 $-1 $310 $403 $404 $405 forward $232 $-1 #
coedge $-1 -1 $-1 $406 $407 $310 $352 reversed $408 $-1 #
edge $-1 -1 $-1 $409 -1.570796326794896558 $355 0 $310 $410 forward @7 unknown #
coedge $-1 -1 $-1 $333 $311 $407 $411 forward $334 $-1 #
coedge $-1 -1 $-1 $311 $332 $398 $412 reversed $334 $-1 #
vertex $-1 -1 $-1 $312 $413 #
vertex $-1 -1 $-1 $412 $414 #
straight-curve $-1 -1 $-1 235 283.0000000000000568 120 0 10 0 I I #
DXID-attrib $-1 -1 $-1 $-1 $315 @10 ASM ENTITY @36 fa9704d1-6fda-4648-8eb9-9d38105722e8 #
loop $-1 -1 $-1 $-1 $415 $315 #
plane-surface $-1 -1 $-1 265 194.0000000000000568 119.9999999999999858 1 0 0 -0 -10 -0 forward_v I I I I #
coedge $-1 -1 $-1 $416 $417 $318 $364 forward $316 $-1 #
coedge $-1 -1 $-1 $418 $318 $419 $420 reversed $281 $-1 #
coedge $-1 -1 $-1 $318 $421 $422 $423 reversed $281 $-1 #
edge $-1 -1 $-1 $424 -1.570796326794896558 $425 2.169367489357750936e-30 $361 $426 forward @7 unknown #
coedge $-1 -1 $-1 $320 $319 $421 $427 forward $237 $-1 #
coedge $-1 -1 $-1 $389 $422 $319 $367 reversed $359 $-1 #
edge $428 -1 $-1 $368 0 $429 1.500000000000000888 $366 $430 forward @7 tangent #
vertex $-1 -1 $-1 $322 $431 #
ellipse-curve $-1 -1 $-1 264 214.0000000000000568 29.99999999999990052 0 -2.4424906541753436e-16 1 0 1.000000000000014211 0 1 I I #
coedge $-1 -1 $-1 $421 $327 $323 $371 reversed $281 $-1 #
edge $432 -1 $-1 $373 -2.799999999999997158 $330 -0 $323 $433 forward @7 unknown #
DXID-attrib $-1 -1 $-1 $-1 $324 @10 ASM ENTITY @36 0cb65298-0d51-4466-9ba3-895ffc9e2c22 #
vertex $-1 -1 $-1 $324 $434 #
straight-curve $-1 -1 $-1 264 215.0000000000000568 29.99999999999995737 0 0 10 I I #
point $-1 -1 $-1 264 215.0000000000000568 29.99999999999995737 #
coedge $-1 -1 $-1 $327 $418 $332 $380 reversed $281 $-1 #
DXID-attrib $-1 -1 $-1 $-1 $328 @10 ASM ENTITY @36 6f1083e8-1f74-4e7c-b4ce-850ea28188ba #
ellipse-curve $-1 -1 $-1 236 214.0000000000000568 44.99999999999996447 0 -2.4424906541753436e-16 1 -1.000000000000014211 0 0 1 I I #
point $-1 -1 $-1 236 215.0000000000000568 44.99999999999996447 #
edge $435 -1 $-1 $336 -4.799999999999997158 $436 -2.799999999999997158 $332 $437 forward @7 unknown #
face $438 -1 $-1 $439 $334 $5 $-1 $440 reversed single #
point $-1 -1 $-1 235 214.0000000000000568 44.99999999999996447 #
coedge $-1 -1 $-1 $388 $338 $441 $442 forward $293 $-1 #
coedge $-1 -1 $-1 $407 $406 $338 $385 reversed $408 $-1 #
edge $-1 -1 $-1 $386 -1.735493991486200749e-29 $443 1.570796326794896558 $338 $444 forward @7 unknown #
vertex $-1 -1 $-1 $339 $445 #
straight-curve $-1 -1 $-1 235 83.00000000000005684 29.99999999999992184 0 -10 -2.4424906541753436e-15 I I #
coedge $-1 -1 $-1 $340 $383 $446 $447 forward $293 $-1 #
coedge $-1 -1 $-1 $415 $366 $340 $390 reversed $359 $-1 #
edge $-1 -1 $-1 $448 6.900000000000003908 $368 11.70000000000000107 $340 $449 forward @7 unknown #
DXID-attrib $-1 -1 $-1 $-1 $345 @10 ASM ENTITY @36 c7b61d6d-7c1d-449a-986f-397148308a53 #
face $450 -1 $-1 $381 $451 $5 $-1 $452 reversed single #
loop $-1 -1 $-1 $-1 $453 $345 #
cone-surface $-1 -1 $-1 264 166.0000000000000853 119.9999999999999858 0 0 -1 0 -1.000000000000014211 0 1 I I 0 1 1.000000000000014211 forward I I I I #
coedge $-1 -1 $-1 $454 $347 $455 $456 forward $232 $-1 #
coedge $-1 -1 $-1 $457 $458 $347 $397 reversed $459 $-1 #
edge $-1 -1 $-1 $401 11.80000000000000071 $460 14.59999999999999787 $347 $461 forward @7 unknown #
coedge $-1 -1 $-1 $462 $348 $354 $412 forward $400 $-1 #
coedge $-1 -1 $-1 $348 $462 $457 $463 reversed $400 $-1 #
loop $-1 -1 $-1 $-1 $462 $464 #
vertex $-1 -1 $-1 $397 $465 #
ellipse-curve $-1 -1 $-1 236 194.0000000000000568 120 0 0 -1 0 1.000000000000014211 0 1 I I #
coedge $-1 -1 $-1 $350 $454 $466 $467 forward $232 $-1 #
coedge $-1 -1 $-1 $468 $469 $350 $405 reversed $451 $-1 #
edge $-1 -1 $-1 $470 -13.19999999999999929 $409 -10.40000000000000213 $350 $471 forward @7 unknown #
coedge $-1 -1 $-1 $384 $351 $469 $472 forward $408 $-1 #
coedge $-1 -1 $-1 $351 $384 $353 $411 reversed $408 $-1 #
loop $-1 -1 $-1 $-1 $407 $439 #
vertex $-1 -1 $-1 $472 $473 #
ellipse-curve $-1 -1 $-1 236 166.0000000000000853 120 0 0 -1 -1.000000000000014211 0 0 1 I I #
edge $474 -1 $-1 $355 0 $386 9 $407 $475 forward @7 tangent #
edge $476 -1 $-1 $356 0 $436 7.500000000000002665 $398 $477 forward @7 tangent #
point $-1 -1 $-1 235 166.0000000000000853 119.9999999999999858 #
point $-1 -1 $-1 235 194.0000000000000568 119.9999999999999858 #
coedge $-1 -1 $-1 $478 $389 $479 $480 reversed $359 $-1 #
coedge $-1 -1 $-1 $455 $361 $481 $482 reversed $316 $-1 #
coedge $-1 -1 $-1 $361 $455 $458 $483 forward $316 $-1 #
coedge $-1 -1 $-1 $376 $362 $462 $484 reversed $281 $-1 #
coedge $-1 -1 $-1 $458 $457 $362 $420 forward $459 $-1 #
edge $-1 -1 $-1 $485 -0.6999999999999992895 $424 2.099999999999997868 $419 $486 forward @7 unknown #
coedge $-1 -1 $-1 $363 $370 $365 $427 reversed $281 $-1 #
coedge $-1 -1 $-1 $366 $481 $363 $423 forward $359 $-1 #
edge $487 -1 $-1 $425 -2 $429 -0 $422 $488 forward @7 unknown #
vertex $-1 -1 $-1 $364 $489 #
vertex $-1 -1 $-1 $364 $490 #
ellipse-curve $-1 -1 $-1 264 194.0000000000000568 44.99999999999995737 0 2.4424906541753436e-16 -1 1.000000000000014211 0 0 1 I I #
edge $491 -1 $-1 $429 -1.570796326794896558 $373 -0 $365 $492 forward @7 unknown #
DXID-attrib $-1 -1 $-1 $-1 $367 @10 ASM ENTITY @36 db524479-629b-4520-93a8-70e8b8d377c0 #
vertex $-1 -1 $-1 $367 $493 #
straight-curve $-1 -1 $-1 265 214.0000000000000568 29.99999999999995737 0 0 10 I I #
point $-1 -1 $-1 265 214.0000000000000568 29.99999999999995737 #
DXID-attrib $-1 -1 $-1 $-1 $371 @10 ASM ENTITY @36 5319d49c-2812-4a6f-bb1e-183d24ef5dde #
straight-curve $-1 -1 $-1 236 215.0000000000000568 44.99999999999996447 -10 -0 -0 I I #
point $-1 -1 $-1 264 215.0000000000000568 44.99999999999996447 #
DXID-attrib $-1 -1 $-1 $-1 $380 @10 ASM ENTITY @36 6e33a14e-e9d1-49c1-b4c1-b424fbafac70 #
vertex $-1 -1 $-1 $484 $494 #
straight-curve $-1 -1 $-1 235 166.0000000000000853 44.99999999999994316 -0 -10 -2.442490654175343206e-15 I I #
DXID-attrib $-1 -1 $-1 $-1 $381 @10 ASM ENTITY @36 989c0529-ade7-4313-8cb9-fefdeb463c98 #
face $495 -1 $-1 $496 $408 $5 $-1 $497 reversed single #
plane-surface $-1 -1 $-1 235 166.0000000000000853 119.9999999999999858 -1 -0 -0 0 10 0 forward_v I I I I #
coedge $-1 -1 $-1 $469 $468 $383 $442 reversed $451 $-1 #
edge $-1 -1 $-1 $443 10.40000000000000213 $498 13.19999999999999929 $383 $499 forward @7 unknown #
vertex $-1 -1 $-1 $385 $500 #
ellipse-curve $-1 -1 $-1 236 166.0000000000000853 29.99999999999991118 0 -2.4424906541753436e-16 1 -1.000000000000014211 0 0 1 I I #
point $-1 -1 $-1 235 166.0000000000000853 29.99999999999998224 #
coedge $-1 -1 $-1 $453 $479 $388 $447 reversed $393 $-1 #
edge $-1 -1 $-1 $498 0 $448 1.570796326794896558 $388 $501 forward @7 unknown #
vertex $-1 -1 $-1 $480 $502 #
straight-curve $-1 -1 $-1 265 97.00000000000004263 29.99999999999992895 0 10 2.4424906541753436e-15 I I #
DXID-attrib $-1 -1 $-1 $-1 $392 @10 ASM ENTITY @36 5f121bb8-2477-4171-9972-7f340c50256e #
loop $-1 -1 $-1 $-1 $469 $392 #
plane-surface $-1 -1 $-1 264 165.0000000000000568 119.9999999999999858 0 -1 0 -10 -0 -0 forward_v I I I I #
coedge $-1 -1 $-1 $466 $446 $468 $503 reversed $393 $-1 #
coedge $-1 -1 $-1 $403 $395 $478 $504 forward $232 $-1 #
coedge $-1 -1 $-1 $417 $416 $395 $456 reversed $316 $-1 #
edge $-1 -1 $-1 $460 -1.570796326794896558 $505 0 $395 $506 forward @7 unknown #
coedge $-1 -1 $-1 $419 $396 $399 $463 forward $459 $-1 #
coedge $-1 -1 $-1 $396 $419 $417 $483 reversed $459 $-1 #
loop $-1 -1 $-1 $-1 $419 $496 #
vertex $-1 -1 $-1 $456 $507 #
straight-curve $-1 -1 $-1 118 195.0000000000000568 120 10 0 0 I I #
coedge $-1 -1 $-1 $399 $398 $418 $484 forward $400 $-1 #
edge $508 -1 $-1 $401 0 $485 7.500000000000002665 $399 $509 forward @7 tangent #
face $510 -1 $-1 $165 $400 $5 $-1 $511 reversed single #
point $-1 -1 $-1 236 195.0000000000000568 119.9999999999999858 #
coedge $-1 -1 $-1 $479 $453 $403 $467 reversed $393 $-1 #
edge $-1 -1 $-1 $512 -1.570796326794896558 $470 0 $403 $513 forward @7 unknown #
coedge $-1 -1 $-1 $441 $404 $453 $503 forward $451 $-1 #
coedge $-1 -1 $-1 $404 $441 $406 $472 reversed $451 $-1 #
vertex $-1 -1 $-1 $503 $514 #
straight-curve $-1 -1 $-1 132 165.0000000000000568 120 -10 0 0 I I #
edge $515 -1 $-1 $409 0 $443 9 $469 $516 forward @7 tangent #
point $-1 -1 $-1 236 165.0000000000000568 119.9999999999999858 #
DXID-attrib $-1 -1 $-1 $-1 $411 @10 ASM ENTITY @36 7ccaf035-8c29-405a-b2fb-0cefe75fb293 #
straight-curve $-1 -1 $-1 235 166.0000000000000853 119.9999999999999858 0 0 -10 I I #
DXID-attrib $-1 -1 $-1 $-1 $412 @10 ASM ENTITY @36 c1c3ca75-3e9b-438b-9692-67c14f8888e3 #
straight-curve $-1 -1 $-1 235 194.0000000000000568 119.9999999999999858 0 0 -10 I I #
coedge $-1 -1 $-1 $481 $415 $454 $504 reversed $359 $-1 #
coedge $-1 -1 $-1 $446 $466 $415 $480 forward $393 $-1 #
edge $517 -1 $-1 $512 0 $448 9 $415 $518 forward @7 tangent #
coedge $-1 -1 $-1 $422 $478 $416 $482 forward $359 $-1 #
edge $519 -1 $-1 $505 0 $425 7.500000000000003553 $416 $520 forward @7 tangent #
edge $521 -1 $-1 $460 0 $424 7.500000000000002665 $458 $522 forward @7 tangent #
edge $-1 -1 $-1 $436 -1.570796326794896558 $485 0 $462 $523 forward @7 unknown #
vertex $-1 -1 $-1 $420 $524 #
straight-curve $-1 -1 $-1 243 195.0000000000000568 44.99999999999994316 10 0 0 I I #
DXID-attrib $-1 -1 $-1 $-1 $423 @10 ASM ENTITY @36 83e87746-832d-4800-ac06-7781bbdcfbc8 #
straight-curve $-1 -1 $-1 265 214.0000000000000568 44.99999999999996447 0 10 2.442490654175343206e-15 I I #
point $-1 -1 $-1 264 195.0000000000000568 44.99999999999995737 #
point $-1 -1 $-1 265 194.0000000000000568 44.99999999999994316 #
DXID-attrib $-1 -1 $-1 $-1 $427 @10 ASM ENTITY @36 e969cdd2-2a05-4154-8690-ba3ce72a8575 #
ellipse-curve $-1 -1 $-1 264 214.0000000000000568 44.99999999999996447 0 -2.4424906541753436e-16 1 0 1.000000000000014211 2.442490654175378113e-16 1 I I #
point $-1 -1 $-1 265 214.0000000000000568 44.99999999999996447 #
point $-1 -1 $-1 235 194.0000000000000568 44.99999999999995737 #
DXID-attrib $-1 -1 $-1 $-1 $439 @10 ASM ENTITY @36 6093b614-34a7-4ff8-9232-f53d33139581 #
face $525 -1 $-1 $464 $459 $5 $-1 $526 reversed single #
cone-surface $-1 -1 $-1 236 166.0000000000000853 119.9999999999999858 0 0 -1 -1.000000000000014211 0 0 1 I I 0 1 1.000000000000014211 forward I I I I #
vertex $-1 -1 $-1 $442 $527 #
straight-curve $-1 -1 $-1 132 165.0000000000000568 29.99999999999994671 10 0 0 I I #
point $-1 -1 $-1 236 165.0000000000000568 29.99999999999998224 #
ellipse-curve $-1 -1 $-1 264 166.0000000000000853 29.99999999999991118 0 -2.4424906541753436e-16 1 0 -1.000000000000014211 0 1 I I #
point $-1 -1 $-1 265 166.0000000000000853 29.99999999999998224 #
edge $528 -1 $-1 $470 0 $498 9 $453 $529 forward @7 tangent #
edge $-1 -1 $-1 $505 10.29999999999999716 $512 13.09999999999999432 $454 $530 forward @7 unknown #
vertex $-1 -1 $-1 $482 $531 #
ellipse-curve $-1 -1 $-1 264 194.0000000000000568 120 0 0 -1 1.000000000000014211 0 0 1 I I #
point $-1 -1 $-1 264 195.0000000000000568 119.9999999999999858 #
DXID-attrib $-1 -1 $-1 $-1 $463 @10 ASM ENTITY @36 bbabc233-dd6a-42b3-8c7b-4c9cb3c84126 #
straight-curve $-1 -1 $-1 236 195.0000000000000568 119.9999999999999858 0 0 -10 I I #
DXID-attrib $-1 -1 $-1 $-1 $464 @10 ASM ENTITY @36 6ee9d6f4-9db7-4c7f-b31f-6bc1aa032d73 #
cone-surface $-1 -1 $-1 236 194.0000000000000568 119.9999999999999858 0 0 -1 0 1.000000000000014211 0 1 I I 0 1 1.000000000000014211 forward I I I I #
vertex $-1 -1 $-1 $480 $532 #
ellipse-curve $-1 -1 $-1 264 166.0000000000000853 120 0 0 -1 0 -1.000000000000014211 0 1 I I #
point $-1 -1 $-1 264 165.0000000000000568 119.9999999999999858 #
DXID-attrib $-1 -1 $-1 $-1 $472 @10 ASM ENTITY @36 04484241-2943-4939-a465-6317766aefc4 #
straight-curve $-1 -1 $-1 236 165.0000000000000568 119.9999999999999858 0 0 -10 I I #
DXID-attrib $-1 -1 $-1 $-1 $480 @10 ASM ENTITY @36 f099ec4e-e205-4c88-b16f-d54e32b8ccfc #
straight-curve $-1 -1 $-1 265 166.0000000000000853 119.9999999999999858 0 0 -10 I I #
DXID-attrib $-1 -1 $-1 $-1 $482 @10 ASM ENTITY @36 5565d99f-97a4-4af5-9a4b-47efb4fd6e7f #
straight-curve $-1 -1 $-1 265 194.0000000000000568 119.9999999999999858 0 0 -10 I I #
DXID-attrib $-1 -1 $-1 $-1 $483 @10 ASM ENTITY @36 2904e395-f696-442b-9327-334c790ee1f6 #
straight-curve $-1 -1 $-1 264 195.0000000000000568 119.9999999999999858 0 0 -10 I I #
ellipse-curve $-1 -1 $-1 236 194.0000000000000568 44.99999999999995737 0 2.4424906541753436e-16 -1 0 1.000000000000014211 0 1 I I #
point $-1 -1 $-1 236 195.0000000000000568 44.99999999999995737 #
DXID-attrib $-1 -1 $-1 $-1 $496 @10 ASM ENTITY @36 c60c35b7-ccf4-4d70-a793-3a4d0c228e07 #
plane-surface $-1 -1 $-1 236 195.0000000000000568 119.9999999999999858 0 1 0 10 0 0 forward_v I I I I #
point $-1 -1 $-1 264 165.0000000000000568 29.99999999999998224 #
DXID-attrib $-1 -1 $-1 $-1 $503 @10 ASM ENTITY @36 694990ff-a826-4bb7-9373-fa6d6ce74534 #
straight-curve $-1 -1 $-1 264 165.0000000000000568 119.9999999999999858 0 0 -10 I I #
straight-curve $-1 -1 $-1 265 297 120 0 -10 0 I I #
point $-1 -1 $-1 265 194.0000000000000568 119.9999999999999858 #
point $-1 -1 $-1 265 166.0000000000000853 119.9999999999999858 #
End-of-ACIS-data 